<?xml version="1.0" encoding="UTF-8"?>
<svg id="Layer_2" data-name="Layer 2" xmlns="http://www.w3.org/2000/svg" viewBox="0 0 270.63 240.02">
  <defs>
    <style>
      .cls-1 {
        fill: #ebe6ff;
      }

      .cls-2 {
        fill: #d32093;
      }

      .cls-3, .cls-4 {
        stroke: #fff;
      }

      .cls-3, .cls-4, .cls-5, .cls-6 {
        fill: none;
        stroke-miterlimit: 10;
      }

      .cls-7 {
        fill: #863dad;
      }

      .cls-4 {
        stroke-width: .5px;
      }

      .cls-8 {
        fill: #602984;
      }

      .cls-5, .cls-6 {
        stroke: #000;
      }

      .cls-6 {
        stroke-width: 2px;
      }

      .cls-9 {
        fill: #e57ab5;
      }
    </style>
  </defs>
  <g id="Color_2" data-name="Color 2">
    <path class="cls-1" d="M174.81,233.73L11.95,115.55c-17.3-12.39-13.35-28.71-3.62-36.55,9.73-7.84,34.48-27.02,40.26-31.6,5.78-4.58,10.57.27,13.87-4.36,3.3-4.63,7.15-11.56,11.81-18.73,4.66-7.17,20.22-19.45,20.22-19.45,9.99-7.69,18.53-5.58,27.53,1.59l30.25,23.81s5.34-7.6,10.69-12.51c7.5-6.88,27.5,7.38,21.53,17.2-4.73,7.79-9.36,13.31-9.36,13.31l85.1,66.98c9,7.17,14.2,27.09,7.03,36.09l-18.04,18.01s-5.62,10.48-10.65,15.69c-5.98,6.2-14.16,10.46-14.16,10.46l-11.88,12.96s-3.33,21.65-7.39,25.66c-9.09,8.99-21.33,6.8-30.33-.38Z"/>
  </g>
  <g id="Color">
    <path class="cls-9" d="M218.52,177.81s-23.6,26.49-25.16,28.23c-1.56,1.74-3.48,2.56-4.51,1.69-1.04-.87-35.69-26.48-37.16-27.62-1.47-1.14-2.27-2.34-2.62-3.75-.35-1.4-2.76-10.47-3.43-12.05-.66-1.57-.38-3.68-.06-4.55s1.34-2.92,1.78-4.37c.44-1.45,1.34-2.75,2.23-3.82.89-1.07,22.1-25.48,22.24-26.52.15-1.04.02-2.02-4.71-5.99-4.73-3.97-39.88-32.29-47.97-39.01-8.09-6.72-10.26-7.51-14.71-7.55-2.7-.02-6.32,3.9-8.18,4.67-1.85.77-3.06,1.24-3.06,1.24,0,0-1.15.95-2.43,1.14-1.54.23-2.59-.18-2.59-.18,0,0-5.95,2.29-7.91,3.36-1.96,1.07-4.36.41-5.81-.81-1.45-1.22-7.87-6.31-9.15-7.1-1.28-.78-2.41-1.63-1.66-3.33.75-1.7,12.65-21.2,14.47-23.25,1.82-2.06,2.45-4.82,2.57-5.89.12-1.06,9.29-12.06,10.58-13.93,1.28-1.88,4.96-4.99,6.44-6.99,1.48-2,6-5.99,7.53-5.99,1.57,0,5.23,3.33,5.23,3.33,0,0,1.09-1.32,1.67-1.85s2.71,1.02,2.71,1.02c0,0,2.26,1.59,2.1,2.45s-1.57,2.7-1.57,2.7l36.19,28.08s15.39-18.94,15.77-19.33,2.08,1.21,1.82,1.53l-.79.94-15.19,18.37s90.65,70.42,92.9,72.24c2.25,1.82,4.98,9.69,4.98,9.69,0,0,.85,1.05,1.01,6.33.06,2.09-3.15,3.75-3.15,3.75,0,0-.82,1.78-4.21,5.98-3.39,4.2-11.04,12.46-12.2,13.15-1.16.69-5.14,5.15-5.14,5.15,0,0-.25,3.6-3.11,6.58-2.85,2.98-5.73,2.26-5.73,2.26Z"/>
    <path class="cls-7" d="M196.09,204.08s-.76,3.37-2.13,9.95c-1.37,6.57-6.02,4.08-10.78.59S30.39,103.34,24.54,99.23c-5.85-4.11-5.59-6.91-1.69-10.33,4.18-3.67,15.67-14.08,20.33-17.29,3.57-2.46,7.02-1.35,10.66,1.4,4.29,3.24,100.22,73.4,100.22,73.4,0,0-4.6,4.67-5.45,6.32s-1.92,4.63-2.48,5.84-1.2,4.01-.5,5.76c.7,1.75,2.92,8.67,3.17,10.36s.68,3.82,3.66,6.11c2.98,2.29,34.03,25.15,35.58,26.16,1.55,1.01,3.16,1.03,5.31-.9s2.73-1.97,2.73-1.97Z"/>
    <path class="cls-2" d="M168.43,119.38s11.31,9.1,12.58,10.55,3.54,2.49.3,7.22c-3.25,4.73-32.24,39.21-32.24,39.21l-3.43-12.05-.95-3.33,2.06-4.7,1.86-3.57,9.55-10.49,13.34-16.6-.17-2.43-2.9-3.83Z"/>
    <path class="cls-8" d="M27.39,85.08s11.59,8.28,17.57,12.54c4.88,3.48,19.52,13.67,23.2,7.61,3.68-6.06-9.71-14.98-12.8-17.29-3.1-2.31-17.11-12.27-17.11-12.27l-5.15,4.29-5.7,5.13Z"/>
    <line class="cls-3" x1="240.45" y1="149.36" x2="152.48" y2="81.28"/>
    <line class="cls-4" x1="249.36" y1="134.04" x2="111.71" y2="27.07"/>
    <line class="cls-3" x1="149.21" y1="78.86" x2="125.98" y2="60.68"/>
    <line class="cls-3" x1="106.45" y1="44.77" x2="122" y2="57.75"/>
  </g>
  <g id="Line">
    <path class="cls-6" d="M218.52,177.81s-23.6,26.49-25.16,28.23c-1.56,1.74-3.48,2.56-4.51,1.69-1.04-.87-35.69-26.48-37.16-27.62-1.47-1.14-2.27-2.34-2.62-3.75-.35-1.4-2.76-10.47-3.43-12.05-.66-1.57-.38-3.68-.06-4.55s1.34-2.92,1.78-4.37c.44-1.45,1.34-2.75,2.23-3.82.89-1.07,22.1-25.48,22.24-26.52.15-1.04.02-2.02-4.71-5.99-4.73-3.97-39.88-32.29-47.97-39.01-8.09-6.72-10.26-7.51-14.71-7.55-2.7-.02-6.32,3.9-8.18,4.67-1.85.77-3.06,1.24-3.06,1.24,0,0-1.15.95-2.43,1.14-1.54.23-2.59-.18-2.59-.18,0,0-5.95,2.29-7.91,3.36-1.96,1.07-4.36.41-5.81-.81-1.45-1.22-7.87-6.31-9.15-7.1-1.28-.78-2.41-1.63-1.66-3.33.75-1.7,12.65-21.2,14.47-23.25,1.82-2.06,2.45-4.82,2.57-5.89.12-1.06,9.29-12.06,10.58-13.93,1.28-1.88,4.96-4.99,6.44-6.99,1.48-2,6-5.99,7.53-5.99,1.57,0,5.23,3.33,5.23,3.33,0,0,1.09-1.32,1.67-1.85s2.71,1.02,2.71,1.02c0,0,2.26,1.59,2.1,2.45s-1.57,2.7-1.57,2.7l36.19,28.08s15.39-18.94,15.77-19.33,2.08,1.21,1.82,1.53l-.79.94-15.19,18.37s90.65,70.42,92.9,72.24c2.25,1.82,4.98,9.69,4.98,9.69,0,0,.85,1.05,1.01,6.33.06,2.09-3.15,3.75-3.15,3.75,0,0-.82,1.78-4.21,5.98-3.39,4.2-11.04,12.46-12.2,13.15-1.16.69-5.54,5.59-5.54,5.59"/>
    <path class="cls-6" d="M67.9,76.81l-2.17,3.07s.06.71.91,1.39c.93.75,1.76.52,1.76.52l2.2-2.94-2.71-2.05Z"/>
    <circle class="cls-6" cx="89.76" cy="75.51" r="3.53"/>
    <path class="cls-6" d="M86.59,74c-.54-1.6.06-3.75,1.16-4.86,2.19-2.23,5.76-2.26,7.99-.07,2.23,2.19,2.26,5.76.07,7.99"/>
    <path class="cls-6" d="M86.59,74s-.2-1.58,1.26-3.08c.74-.76,2.7-2.02,5.22-.57,2.5,1.43,2.7,4.05,1.93,5.49-.68,1.27-2.29,2.15-2.29,2.15"/>
    <path class="cls-6" d="M55.92,96.27c.14-.17,8.39-11.52,8.39-11.52"/>
  </g>
  <g id="Line_2" data-name="Line 2">
    <path class="cls-5" d="M107.53,16.5s-5.66,4.63-6.77,6.12-3.06,3.97-4.11,4.88-31.92,46.98-31.92,46.98"/>
    <path class="cls-5" d="M110.99,18.85s-4.04,5.09-8.8,11.5c-4.76,6.41-17.97,26.08-17.56,26.81.4.73.81,1.6,1.97,1.17,1.16-.43,17.52-21.04,20.42-24.8,2.9-3.76,8.34-11.16,8.34-11.16"/>
    <path class="cls-5" d="M87.18,58.02s.94.88,1.84-.07c.9-.95,1.31-2.82,4.08-.79,2.76,2.03,5.02,3.97,7.76,6.07,3.47,2.66,6.9,4.37,7.58,6.21.67,1.84-.84,3.59-.84,3.59"/>
    <line class="cls-5" x1="91.89" y1="51.89" x2="233.45" y2="163.03"/>
    <line class="cls-5" x1="215.74" y1="156.43" x2="146.89" y2="102.7"/>
    <path class="cls-5" d="M179.93,128.4c3.23,2.6,4.48,5.39,2.33,8.07s-33.2,39.89-33.2,39.89"/>
    <path class="cls-5" d="M250.61,142.57S113.36,33.7,111.67,33.42c-1.08-.18-5.54,2.32-5.07,2.86s141.26,110.66,141.26,110.66"/>
    <path class="cls-5" d="M38.17,75.52s14.01,9.97,17.11,12.27c3.1,2.31,16.48,11.24,12.8,17.29-3.68,6.06-18.32-4.14-23.2-7.61-5.98-4.26-17.57-12.54-17.57-12.54"/>
  </g>
</svg>