<?xml version="1.0" encoding="UTF-8"?>
<svg id="Layer_2" data-name="Layer 2" xmlns="http://www.w3.org/2000/svg" viewBox="0 0 84.03 78.78">
  <defs>
    <style>
      .cls-1 {
        fill: #d8d8d8;
      }

      .cls-2 {
        fill: #0a331f;
      }

      .cls-3, .cls-4 {
        fill: none;
        stroke: #000;
        stroke-miterlimit: 10;
      }

      .cls-5 {
        fill: #f3fff9;
      }

      .cls-4 {
        stroke-width: 2px;
      }

      .cls-6 {
        fill: #2cdb87;
      }

      .cls-7 {
        fill: #b2b2b2;
      }
    </style>
  </defs>
  <g id="Color">
    <path class="cls-5" d="M72.75,55.9s-2.21,6.73-3.92,9.56c-1.71,2.83-10.24,6.44-17.76,7.48-7.52,1.05-14.02-.05-26.22-6.26C5.08,56.62,6.19,48.7,5.53,41.25c-.72-8.2,3.78-10.52,3.78-10.52,0,0,8.09,15.06,25.5,21.88,21.61,8.47,37.94,3.28,37.94,3.28Z"/>
    <path class="cls-6" d="M12.77,13.53c-3.29,5.73-10.12,24.04,23.05,39.25,33.47,15.35,45.67-7.29,47.16-14.49,1.49-7.2-2.03-23.93-25.89-33.08C33.23-3.92,18.12,4.23,12.77,13.53Z"/>
    <ellipse class="cls-5" cx="38.58" cy="42.87" rx="2.8" ry="3.11" transform="translate(-14.62 65.15) rotate(-70.74)"/>
    <ellipse class="cls-5" cx="56.44" cy="13.31" rx="2.8" ry="3.12" transform="translate(25.26 62.2) rotate(-70.74)"/>
    <ellipse class="cls-5" cx="55.06" cy="46.52" rx="2.8" ry="3.18" transform="translate(3.62 97.02) rotate(-84.66)"/>
    <ellipse class="cls-5" cx="69.16" cy="21.57" rx="2.8" ry="3.37" transform="translate(15.64 70.39) rotate(-59.69)"/>
    <ellipse class="cls-5" cx="73.53" cy="32.21" rx="2.8" ry="3.17" transform="translate(26.4 97.19) rotate(-77.71)"/>
    <ellipse class="cls-5" cx="68.21" cy="43.25" rx="2.8" ry="3.2" transform="translate(4.89 93.38) rotate(-70.74)"/>
    <ellipse class="cls-5" cx="20.47" cy="19.66" rx="2.8" ry="3.13" transform="translate(-4.84 32.5) rotate(-70.74)"/>
    <ellipse class="cls-5" cx="27.79" cy="10.91" rx="2.8" ry="3.11" transform="translate(8.32 33.55) rotate(-70.74)"/>
    <ellipse class="cls-2" cx="47.35" cy="26.96" rx="6.14" ry="7.68" transform="translate(6.28 62.77) rotate(-70.74)"/>
    <ellipse class="cls-5" cx="25.43" cy="32.48" rx="2.8" ry="3.18" transform="translate(-15.45 38.04) rotate(-59.69)"/>
    <ellipse class="cls-5" cx="41.2" cy="8.64" rx="2.8" ry="3.12" transform="translate(23.98 47.05) rotate(-77.71)"/>
    <path class="cls-1" d="M30.62,51.37s-4.46.44-6.23,4.4-2.37,8.32-.17,10.01c0,0-14.58-4.52-18-16.38-3.95-13.72,4.32-20.11,4.32-20.11,0,0,.54,5.12,6.51,11.42,7.83,8.26,13.57,10.65,13.57,10.65Z"/>
    <path class="cls-6" d="M6.64,32.36s-5.38,3.87-5.48,15.27c-.1,11.39,14.69,20.55,27.54,25.94,12.86,5.39,26.55,4.73,34.31.46,7.76-4.27,9.5-14.46,9.5-14.46,0,0-6.97,15.52-25.33,13.34S11.34,61.42,6.91,51.09c-2.76-6.43-.27-18.73-.27-18.73Z"/>
    <path class="cls-7" d="M17.11,18.16s1.9-1.29,4.03.22c2.32,1.65,1.39,2.83,1.39,2.83,0,0,2.12-3.41-.53-4.18-3.63-1.06-4.89,1.13-4.89,1.13Z"/>
    <path class="cls-7" d="M22.16,30.37s2.11-.9,3.91.99c1.96,2.07.82,3.05.82,3.05,0,0,2.73-2.93.29-4.2-3.35-1.74-5.02.16-5.02.16Z"/>
    <path class="cls-7" d="M35.44,41.43s1.93-1.25,4.02.31c2.28,1.7,1.33,2.86,1.33,2.86,0,0,2.19-3.36-.43-4.19-3.6-1.14-4.92,1.01-4.92,1.01Z"/>
    <path class="cls-7" d="M51.6,45.93s1.52-1.72,3.96-.77c2.65,1.04,2.04,2.41,2.04,2.41,0,0,1.22-3.82-1.53-3.92-3.77-.14-4.47,2.28-4.47,2.28Z"/>
    <path class="cls-7" d="M64.54,43.18s1.13-2,3.71-1.59c2.81.45,2.5,1.92,2.5,1.92,0,0,.39-3.99-2.32-3.51-3.72.66-3.89,3.18-3.89,3.18Z"/>
    <path class="cls-7" d="M69.77,32.29s1.13-2,3.71-1.59c2.81.45,2.5,1.92,2.5,1.92,0,0,.39-3.99-2.32-3.51-3.72.66-3.89,3.18-3.89,3.18Z"/>
    <path class="cls-7" d="M65.96,20.68s1.73-1.52,4.02-.27c2.5,1.36,1.73,2.64,1.73,2.64,0,0,1.69-3.64-1.03-4.08-3.73-.61-4.72,1.71-4.72,1.71Z"/>
    <path class="cls-7" d="M53.02,12.25s1.62-1.63,3.99-.55c2.59,1.18,1.91,2.52,1.91,2.52,0,0,1.43-3.75-1.31-4-3.76-.35-4.59,2.04-4.59,2.04Z"/>
    <path class="cls-7" d="M37.7,7.72s1.6-1.65,3.99-.59c2.6,1.16,1.93,2.5,1.93,2.5,0,0,1.4-3.76-1.35-3.99-3.76-.32-4.57,2.08-4.57,2.08Z"/>
    <path class="cls-7" d="M24.54,10.02s1.6-1.65,3.99-.59c2.6,1.16,1.93,2.5,1.93,2.5,0,0,1.4-3.76-1.35-3.99-3.76-.32-4.57,2.08-4.57,2.08Z"/>
  </g>
  <g id="Line">
    <path class="cls-4" d="M14.75,10.72c-8.93,10.3-3.94,29.11,21.42,39.93,25.23,10.77,39.24,2.88,44.85-7.36,4-7.31,4.2-26.59-21.84-37.24C34.96-3.87,21.86,2.51,14.75,10.72Z"/>
    <path class="cls-4" d="M9.32,30.06c-1.74,1.4-3.37,2.41-4.87,4.46-8.03,11.01-2.71,29.25,23.08,38.99,25.67,9.7,39.33,1.22,44.5-9.24,1.26-2.55,2.02-6.47,1.42-10.91"/>
    <path class="cls-4" d="M74.66,52.39s-1.82,6.59-6.59,12.53c-6.75,8.4-20.96,11.56-40.25,3.13C8.34,59.54,2.78,48.64,6.07,37.45c2.05-6.97,4.83-10.78,4.83-10.78"/>
    <path class="cls-4" d="M14.75,10.72c-5.82,6.08-7.18,17.27-.12,27.87,7,10.51,34.46,24.1,51.9,18.55,21.22-6.75,15.91-27.62,15.91-27.62"/>
  </g>
  <g id="Line_2" data-name="Line 2">
    <path class="cls-3" d="M8.4,31.46s.71,14.96,26.87,25.52c25.57,10.32,36.2,1.3,36.2,1.3"/>
    <path class="cls-3" d="M7.65,33.67s-.19,15.51,25.81,25.98c25.42,10.24,37.45,1.16,37.45,1.16"/>
    <path class="cls-3" d="M6.73,34.72s-1.28,17.39,24.73,27.86c25.42,10.24,37.84.72,37.84.72"/>
    <path class="cls-3" d="M6.07,37.45s-2.25,17.48,23.76,27.95c25.42,10.24,37.38.52,37.38.52"/>
    <ellipse class="cls-3" cx="38.42" cy="42.49" rx="2.8" ry="3.37" transform="translate(-14.37 64.75) rotate(-70.74)"/>
    <ellipse class="cls-3" cx="56.27" cy="12.93" rx="2.8" ry="3.37" transform="translate(25.51 61.79) rotate(-70.74)"/>
    <ellipse class="cls-3" cx="54.85" cy="46.07" rx="2.8" ry="3.37" transform="translate(3.87 96.4) rotate(-84.66)"/>
    <ellipse class="cls-3" cx="69.23" cy="21.45" rx="2.8" ry="3.37" transform="translate(15.77 70.4) rotate(-59.69)"/>
    <ellipse class="cls-3" cx="73.4" cy="32.07" rx="2.8" ry="3.37" transform="translate(8.68 79.26) rotate(-59.69)"/>
    <ellipse class="cls-3" cx="67.97" cy="42.84" rx="2.8" ry="3.37" transform="translate(5.11 92.88) rotate(-70.74)"/>
    <ellipse class="cls-3" cx="20.29" cy="19.27" rx="2.8" ry="3.37" transform="translate(-4.59 32.07) rotate(-70.74)"/>
    <ellipse class="cls-3" cx="27.63" cy="10.53" rx="2.8" ry="3.37" transform="translate(8.57 33.14) rotate(-70.74)"/>
    <ellipse class="cls-3" cx="47.22" cy="26.59" rx="6.14" ry="7.38" transform="translate(6.54 62.41) rotate(-70.74)"/>
    <ellipse class="cls-3" cx="25.18" cy="32.11" rx="2.8" ry="3.37" transform="translate(-15.25 37.65) rotate(-59.69)"/>
    <ellipse class="cls-3" cx="41.03" cy="8.23" rx="2.8" ry="3.37" transform="translate(24.26 46.57) rotate(-77.71)"/>
  </g>
</svg>