<?xml version="1.0" encoding="UTF-8"?>
<svg id="Layer_2" data-name="Layer 2" xmlns="http://www.w3.org/2000/svg" viewBox="0 0 250.86 213.53">
  <defs>
    <style>
      .cls-1 {
        fill: #1bbfab;
      }

      .cls-2 {
        fill: #88fff9;
      }

      .cls-3, .cls-4 {
        fill: none;
        stroke: #000;
        stroke-miterlimit: 10;
      }

      .cls-4 {
        stroke-width: 2px;
      }

      .cls-5 {
        fill: #25847b;
      }
    </style>
  </defs>
  <g id="Color">
    <path class="cls-2" d="M135.3,67.69C85.31,36,33.82,1.35,33.82,1.35L1.42,43.63s88,63.51,106.27,76.38c18.27,12.87,101,78.98,101,78.98l37.33-41.55s-62.08-58.92-110.71-89.75ZM222.32,172.67c-2.13.65-4.38-.55-5.03-2.68s.55-4.38,2.68-5.03c2.13-.65,4.38.55,5.03,2.68.65,2.13-.55,4.38-2.68,5.03Z"/>
    <polygon class="cls-5" points="208.69 198.99 210.96 212.31 249.74 169.67 246.24 158.19 208.69 198.99"/>
    <path class="cls-1" d="M1.57,44.13l.49,10.82s88.44,59.12,115.67,80.27c27.23,21.16,93.01,76.38,93.01,76.38l-2.27-13.32s-85.89-68.85-107.13-84.54C80.04,97.99,1.57,44.13,1.57,44.13Z"/>
  </g>
  <g id="Line">
    <path class="cls-4" d="M33.82,1.35L1.42,43.63s88,63.51,106.27,76.38c18.27,12.87,101,78.98,101,78.98l37.33-41.55s-62.08-58.92-110.71-89.75C85.31,36,33.82,1.35,33.82,1.35Z"/>
    <path class="cls-4" d="M1.42,43.63l.86,12.03s48.06,30.16,96.7,65.92c54.4,40,111.28,89.47,111.28,89.47l-1.57-12.06"/>
    <polyline class="cls-4" points="210.96 212.31 249.74 169.67 246.01 157.44"/>
    <circle class="cls-4" cx="221.15" cy="168.82" r="4.44"/>
  </g>
  <g id="Line_2" data-name="Line 2">
    <line class="cls-3" x1="26.02" y1="37.46" x2="14.08" y2="52.76"/>
    <line class="cls-3" x1="58.97" y1="61.09" x2="47.03" y2="76.39"/>
    <line class="cls-3" x1="94.21" y1="86.98" x2="82.27" y2="102.28"/>
    <line class="cls-3" x1="137.44" y1="118.34" x2="125.5" y2="133.64"/>
    <line class="cls-3" x1="168.47" y1="141.71" x2="156.53" y2="157.01"/>
    <line class="cls-3" x1="26.37" y1="51.62" x2="22.07" y2="57.43"/>
    <line class="cls-3" x1="33.58" y1="57.49" x2="29.28" y2="63.29"/>
    <line class="cls-3" x1="39.54" y1="61.98" x2="35.25" y2="67.78"/>
    <line class="cls-3" x1="45.95" y1="65.96" x2="41.66" y2="71.77"/>
    <line class="cls-3" x1="59.32" y1="75.75" x2="55.03" y2="81.55"/>
    <line class="cls-3" x1="73.39" y1="85.75" x2="69.09" y2="91.55"/>
    <line class="cls-3" x1="80.9" y1="91.03" x2="76.61" y2="96.84"/>
    <line class="cls-3" x1="95.49" y1="101.82" x2="91.2" y2="107.63"/>
    <line class="cls-3" x1="113.32" y1="114.44" x2="109.03" y2="120.24"/>
    <line class="cls-3" x1="121.45" y1="120.34" x2="117.15" y2="126.14"/>
    <line class="cls-3" x1="143.62" y1="137.46" x2="139.33" y2="143.26"/>
    <line class="cls-3" x1="148.9" y1="141.33" x2="144.6" y2="147.13"/>
    <line class="cls-3" x1="154.73" y1="145.9" x2="150.44" y2="151.7"/>
    <line class="cls-3" x1="176.83" y1="164.3" x2="172.53" y2="170.11"/>
    <line class="cls-3" x1="170.78" y1="158.8" x2="166.48" y2="164.61"/>
    <line class="cls-3" x1="233.9" y1="145.81" x2="230.15" y2="150.31"/>
    <line class="cls-3" x1="224.07" y1="136.37" x2="220.33" y2="140.87"/>
    <line class="cls-3" x1="211.03" y1="125.39" x2="207.28" y2="129.89"/>
    <line class="cls-3" x1="195.5" y1="112.32" x2="191.75" y2="116.82"/>
    <line class="cls-3" x1="181.26" y1="100.54" x2="177.52" y2="105.04"/>
    <line class="cls-3" x1="167.23" y1="91.09" x2="163.49" y2="95.59"/>
    <line class="cls-3" x1="150.14" y1="78.25" x2="146.39" y2="82.75"/>
    <line class="cls-3" x1="134.7" y1="68.38" x2="130.95" y2="72.88"/>
    <line class="cls-3" x1="118.81" y1="57.79" x2="115.06" y2="62.3"/>
    <line class="cls-3" x1="104.25" y1="48.14" x2="100.5" y2="52.65"/>
    <line class="cls-3" x1="87.99" y1="37.56" x2="84.25" y2="42.06"/>
    <line class="cls-3" x1="73.11" y1="27.72" x2="69.36" y2="32.22"/>
    <line class="cls-3" x1="58.36" y1="18.27" x2="54.61" y2="22.78"/>
    <line class="cls-3" x1="137.95" y1="133.72" x2="133.66" y2="139.52"/>
    <line class="cls-3" x1="103.87" y1="108.73" x2="99.57" y2="114.54"/>
    <line class="cls-3" x1="67.12" y1="81.46" x2="62.83" y2="87.26"/>
    <path class="cls-3" d="M8.22,33.54s109.38,77.75,117.16,84.01c7.78,6.26,93.13,70.36,93.13,70.36"/>
    <path class="cls-3" d="M26.33,12.24s88.13,56.17,122.74,80.82c38.61,27.51,88.34,72.69,88.34,72.69"/>
  </g>
</svg>