<?xml version="1.0" encoding="UTF-8"?>
<svg id="Layer_2" data-name="Layer 2" xmlns="http://www.w3.org/2000/svg" viewBox="0 0 189.24 248.67">
  <defs>
    <style>
      .cls-1 {
        fill: #ffbd5c;
      }

      .cls-2 {
        fill: #2a627a;
      }

      .cls-3 {
        fill: #d6d6d6;
      }

      .cls-4, .cls-5 {
        stroke: #fff;
      }

      .cls-4, .cls-5, .cls-6 {
        fill: none;
        stroke-miterlimit: 10;
      }

      .cls-7 {
        fill: #e9fffd;
      }

      .cls-8 {
        fill: #969595;
      }

      .cls-9 {
        fill: #5ca3aa;
      }

      .cls-10 {
        fill: #88fff9;
      }

      .cls-11 {
        fill: #ffdf57;
      }

      .cls-12 {
        fill: #f9bb69;
      }

      .cls-5 {
        stroke-width: .5px;
      }

      .cls-13 {
        fill: #fff;
      }

      .cls-14 {
        fill: #fffcf0;
      }

      .cls-15 {
        fill: #ffe576;
      }

      .cls-16 {
        fill: #337d89;
      }

      .cls-6 {
        stroke: #000;
        stroke-width: 2px;
      }
    </style>
  </defs>
  <g id="Color">
    <path class="cls-10" d="M7.25,64.47c4.84,17.07,16.3,25.87,29.93,32.02,13.63,6.15,25.98,3.51,25.98,3.51,1.47,1.2,3.89,8.27,3.89,8.27,10.14,2.44,22.63,10.1,29.61,17.45,6.98,7.35,11.87,21.75,11.87,21.75l23.14-11.92-.57-1.9,3.57-3.39s-10.35-9.93-12.31-14.05c-1.95-4.13-8.38-12.91-8.38-12.91,0,0,2.16-2.92,1.86-9.17-.3-6.25-2.75-17.11-4.62-25.25-1.87-8.14-.66-14.76,2.82-17.88,3.48-3.12,11.17-12.05,10.12-24.26s-8.85-19.82-12.5-21.32c-4.15-1.71-12.04-6.33-19.22-3.26-10.6,4.53-11.78,14.46-11.6,20.09.18,5.62,1.25,18.63,7.73,28.19,6.48,9.57,10.15,22.99,11.39,29.19,1.24,6.2.47,12.04.47,12.04-1.78-1.5-7.49-2.67-7.49-2.67-.87,2.85-2.39,4.25-2.39,4.25,0,0-2.29-1.97-4.45-3.14-2.16-1.17-5.47-1.14-5.47-1.14,0,0,.03-3.77-2.34-8.81-2.37-5.04-28.03-32.4-42.14-41.95-14.11-9.55-17.4-6.97-22.11-5.1-4.71,1.87-11.65,14.31-6.8,31.38ZM88.54,30.95c-1.4-7.55,0-9.36,1.16-13.85.53-2.05,1.36-7.34,7.96-6.37,9.28,1.37,12.99,6.15,14.78,15.77,1.79,9.62-2.11,18.42-8.71,19.65-6.6,1.23-13.4-5.58-15.19-15.2ZM17.44,47.46c3.83-2.58,10.68,1.59,18.88,11.47,8.2,9.88,9.67,8.51,14.76,13.3,5.09,4.79,10.47,9.75,8.08,16.42-2.39,6.67-12.09,3.32-18.33.62-6.23-2.7-16.87-11.71-21.83-18.9-4.32-6.27-7.06-19.2-1.56-22.9Z"/>
    <path class="cls-2" d="M96.12,9.89s7.1-3.97,14.46,3.47c7.36,7.44,8.47,22.13,1.14,29.77-4.45,4.64-8.73,2.68-8.73,2.68,0,0,11.18-2.39,9.59-17.06-1.59-14.68-9.28-17.15-16.45-18.85Z"/>
    <path class="cls-16" d="M90.9,2.63s-9.15,4.97-10.05,19.59,8.37,28.66,12.01,35.92c3.64,7.26,8.28,19.42,7.58,33.5,0,0-1.98-1.28-3.62-1.63s-2.59-.73-2.59-.73c0,0,1.56-4.82-.59-12.31-2.15-7.5-4.78-13.66-8.74-20.59-3.96-6.93-11.73-16.7-10.32-34.47S90.9,2.63,90.9,2.63Z"/>
    <path class="cls-2" d="M17.58,46.73s4.58-4.66,9.59-2.59c5.02,2.06,6.27,3.08,15.32,12.5,9.05,9.42,12.72,10.59,16.99,15.61s6.42,7.71,4.23,14c-2.2,6.3-6.37,5.73-6.37,5.73,0,0,3.93-5.17,1.39-10.94-2.54-5.78-11.09-12.02-13.91-13.96-2.83-1.94-8.79-8.88-10.68-11.23-1.89-2.34-6.93-6.85-9.72-7.94-2.79-1.09-6.84-1.18-6.84-1.18Z"/>
    <path class="cls-16" d="M12.92,33.72S.46,45.97,8.21,67.49c7.75,21.52,26.75,30.43,42.93,33.15,7.29,1.23,12.02-.64,12.02-.64,0,0,1.25,1.1,2.43,3.67s1.46,4.6,1.46,4.6c0,0,12.97,3.34,22.55,11.27,9.58,7.93,14.63,16.44,18.93,27.93l-2.41,3.47s-6.89-17.5-14.21-23.98c-7.32-6.48-24.83-14.17-30.38-15.59,0,0-.04-2.56-.62-3.84s-.89-2.32-.89-2.32c0,0-15.52.87-28.72-5.74-13.2-6.61-29.1-22.05-29.78-35.64-.68-13.6,2.34-26.03,11.41-30.09Z"/>
    <path class="cls-9" d="M63.16,99.99s-1.34,2.84-3.15,5.21c0,0,.92,1.33,1.01,2.79.1,1.46.5,3.37.5,3.37l5.52-3.1s-.64-3.05-1.46-4.6-2.43-3.67-2.43-3.67Z"/>
    <path class="cls-2" d="M94.03,123.29c4.95,4.32,10.22,12.93,14.49,24.16l-2.41,3.47s-6.2-16.86-16.32-25.96c-6.79-6.1-28.26-13.61-28.26-13.61l5.52-3.1s15.66,5.15,26.99,15.04Z"/>
    <circle class="cls-11" cx="112.03" cy="125.58" r="7.84"/>
    <circle class="cls-15" cx="112.03" cy="125.73" r="4.2"/>
    <circle class="cls-13" cx="112.18" cy="124.7" r="1.57"/>
    <path class="cls-14" d="M115.36,129.37l1.23,2.9s-1.06.84-3.01,1.3c-1.95.45-4.44-1.01-4.44-1.01l1.5-2.87s1.13.4,2.52.24,2.21-.54,2.21-.54Z"/>
    <path class="cls-1" d="M116.55,127.61l2.23,2.65s1.12-1.82,1.1-3.13c-.02-1.31-.19-3.21-.19-3.21l-2.89.84s-.08.63-.26,1.54c-.18.9,0,1.31,0,1.31Z"/>
    <polygon class="cls-13" points="107.55 126.37 104.95 127.2 105.93 129.97 108.38 128.16 107.55 126.37"/>
    <polygon class="cls-12" points="115.82 122.76 118.33 121.41 116.77 119.65 114.61 121.68 115.82 122.76"/>
    <line class="cls-5" x1="119.23" y1="122.53" x2="116.21" y2="123.65"/>
    <line class="cls-5" x1="105.16" y1="122.16" x2="108.09" y2="123.5"/>
    <path class="cls-3" d="M130.02,136.38s16.23,35.72,24.08,54.57c7.84,18.85,15.44,50.86,15.44,50.86,0,0-14.21-23.43-18.33-28.78s-21.66-31.84-23.88-35.55c-2.23-3.71-18.8-30.02-18.8-30.02l21.5-11.07Z"/>
    <path class="cls-3" d="M132.68,131.37c0,.11,19.48,19.63,29.68,31.44,10.2,11.81,22.73,27.31,22.73,27.31l-.84,20.8s-16.32-16.09-19.24-19.1c-2.92-3.01-16.68-16.55-16.68-16.55l-9.12-18.47-9.19-20.41,1.64-.85-.57-1.9,1.58-2.27Z"/>
    <path class="cls-8" d="M108.53,147.45s32.67,51.38,39.68,61.4c7.01,10.02,22.87,35.8,22.87,35.8l-5.44-2.39s-17.73-26.58-21.86-32.61c-4.13-6.03-20.6-31.48-23.55-36.22-2.94-4.74-14.12-22.51-14.12-22.51l2.41-3.47Z"/>
    <path class="cls-8" d="M147.56,175.29s17.25,16.95,20.79,20.57c3.54,3.62,15.14,15.08,15.14,15.08l-6.89-1.12s-11.8-11.92-14.19-14.26c-2.38-2.34-12.19-12.42-12.19-12.42l-2.65-7.85Z"/>
    <path class="cls-13" d="M126.11,138.37c16.49,32.12,31.38,65.16,42.43,99.55,0,0-.95.3-.95.3-8.54-25.64-19.47-50.41-31.33-74.67-3.97-8.08-8.06-16.12-12.32-24.02l2.16-1.16h0Z"/>
    <path class="cls-13" d="M121.39,140.5c14.35,27.51,27.02,55.85,38.45,84.68,0,0-.93.37-.93.37-8.86-21.46-18.51-42.59-28.94-63.33-3.48-6.9-7.03-13.79-10.74-20.55l2.16-1.18h0Z"/>
    <path class="cls-13" d="M132.54,134.67c18.58,19.65,35.96,40.38,52.27,61.95,0,0-.79.61-.79.61-12.47-15.92-25.6-31.33-39.31-46.2-4.57-4.95-9.2-9.86-13.92-14.63l1.75-1.72h0Z"/>
    <polygon class="cls-13" points="133.06 137.31 184.84 201.69 184.07 202.33 131.15 138.86 133.06 137.31 133.06 137.31"/>
    <path class="cls-7" d="M27.12,36.51c11.01,5.42,18.96,14.93,28.09,22.8,8.51,7.91,19.96,15.85,21.09,28.45,0,0-1,0-1,0-1.54-12.13-12.89-19.42-21.41-26.94-6.9-5.64-13.16-12.11-20.47-17.18-2.31-1.59-4.91-3.25-7.42-4.33,0,0,1.12-2.82,1.12-2.82h0Z"/>
    <path class="cls-7" d="M117.17,13.46c5.13,5.1,6.52,12.92,4.8,19.78-1.36,7.22-4.48,13.82-11.09,17.7,0,0-1.71-2.77-1.71-2.77,2.88-1.63,5.33-3.6,7.03-6.32,2.46-4.07,4.05-9.15,4.63-13.96.43-4.87-1.08-10.03-4.35-13.71,0,0,.69-.73.69-.73h0Z"/>
    <path class="cls-13" d="M85.79,12.6c-2.9,7.34-2.25,15.73.38,23.06,0,0-.94.34-.94.34-2.57-7.58-3.09-16.15.02-23.65,0,0,.54.26.54.26h0Z"/>
    <path class="cls-7" d="M20.56,38c-2.85-.48-6.39,3.31-7.57,5.78,0,0-.95-.32-.95-.32.51-2.03,1.58-3.85,2.94-5.46,1.64-1.77,3.35-3.41,6.2-3.24,0,0-.62,3.25-.62,3.25h0Z"/>
    <path class="cls-7" d="M107.86,54.92c-1.45,2.73-1.24,6.32-1.15,9.4.33,6.96,2.69,13.61,3.84,20.48.56,3.51,1.18,7.12.32,10.67,0,0-.97-.24-.97-.24.35-1.62.29-3.35.1-5.05-1-8.74-4.86-16.87-5.68-25.66-.26-3.76-.7-7.67,1.16-11.18,0,0,2.37,1.59,2.37,1.59h0Z"/>
    <path class="cls-7" d="M111.17,115.8c-.39-6.32-6.63-13.38-11.92-16.48-1.41-.74-3.51-1.5-4.26-.82-.25.18-.52.53-.9.92-1.97,2.12-5.75,1.28-7.43-.77-1.78-2-2.67-5.18-5.4-5.84,0,0,.23-.97.23-.97,1.01.21,1.97.73,2.71,1.43,2.45,2.38,3.74,6.8,7.8,5.55.82-.36,1.04-1.07,1.82-1.74.48-.43,1.18-.7,1.8-.75,7.7-.08,18.38,11.92,18.67,19.46,0,0-3.12.02-3.12.02h0Z"/>
    <path class="cls-7" d="M103.81,123.09c-6.92-9.84-21.52-20.53-34.14-18.14-.83.22-1.7.59-2.3,1.04l-.69-.72c8.48-5.97,24.73,1.86,31.72,7.77,2.97,2.43,5.67,5.04,8.11,8.18l-2.7,1.87h0Z"/>
    <path class="cls-4" d="M10.39,63.16s4.01,15.14,17.75,24.98c11.91,8.53,28.31,9.56,28.31,9.56"/>
    <path class="cls-4" d="M103.28,125.65s-8.17-10.07-12.73-12.65c-4.57-2.57-10.54-5.82-15.69-5.9-5.15-.07-7.81,1.15-7.81,1.15"/>
    <path class="cls-4" d="M119.37,140.17s-.85-2.72-3.63-2.76-6.08.39-8.54-1.7c-2.46-2.08-1.27-5.75-1.27-5.75"/>
  </g>
  <g id="Line">
    <path class="cls-6" d="M113.98,103.29c3.06-3.33,1.82-13.66.24-21.44s-5.9-19.91-2.75-27.28c2.28-5.34,11.8-8.53,12.68-25.96.67-13.24-9.99-25.58-24.05-27.48-8.7-1.18-20.92,5.83-19.05,26.02,1.82,19.65,12.03,27.13,16.46,41.8,4.43,14.68,2.86,23.11,2.86,23.11"/>
    <path class="cls-6" d="M96.82,1.07s-9.89-.77-17.1,8.31c-7.2,9.07-6.26,22.25-3.13,31.17,3.12,8.92,11.97,19.68,15.99,31.98s1.82,17.51,1.82,17.51"/>
    <ellipse class="cls-6" cx="102.25" cy="27.54" rx="14.47" ry="19.01" transform="translate(-3.5 22.01) rotate(-12.08)"/>
    <path class="cls-6" d="M102.27,46.22c7.81-1.67,12.17-11.13,10.09-20.84-2.08-9.71-10.18-16.44-18-14.76"/>
    <path class="cls-6" d="M92.42,88.83s14.99,3.14,25.87,21.15c10.87,18.01,13.37,25.04,13.37,25.04l-22.77,12s-5.31-12.43-10.28-19c-4.97-6.57-15.92-14-22.83-16.54-6.91-2.53-8.74-3.22-8.74-3.22,0,0-1.99-6.64-4.23-8.61,0,0-9.3,3.64-24.48-2.67-15.17-6.31-23.99-14.14-28.27-24.18-4.28-10.04-8.74-29.24,3.52-39.35,12.26-10.11,34.74,15.75,42.53,22.82,7.79,7.07,14.63,13.87,19.36,20.06,4.73,6.19,5.28,12.42,5.28,12.42,0,0,2.58.2,4.78,1.2s4.89,3.13,4.89,3.13c0,0,1.62-2.21,2-4.26Z"/>
    <path class="cls-6" d="M21.78,43.99c-8.18,2.71-9.78,14.8-4.45,23.89,5.33,9.09,16.89,19.04,27.06,22.97,10.17,3.94,17.73,1.2,20.07-6.39,2.34-7.59-9.2-16.25-16.14-22.01-7.9-6.56-16.56-21.77-26.53-18.46Z"/>
    <path class="cls-6" d="M57.37,91.97c.95-1.16,1.69-2.56,2.18-4.18,2.34-7.59-9.2-16.25-16.14-22.01-7.9-6.56-16.56-21.77-26.53-18.46"/>
    <ellipse class="cls-6" cx="112.19" cy="125.58" rx="7.62" ry="8.35" transform="translate(-56.08 119.1) rotate(-46.02)"/>
    <ellipse class="cls-6" cx="112.19" cy="125.58" rx="4.14" ry="4.54" transform="translate(-56.08 119.1) rotate(-46.02)"/>
    <polyline class="cls-6" points="130.84 133.05 134.67 130.25 122.94 117.88"/>
    <path class="cls-6" d="M132.68,131.47s14.42,14.05,29.68,31.33c15.38,17.42,22.73,27.31,22.73,27.31,0,0-.52,16.99-.84,20.8,0,0-15.82-15.45-22.16-22.11-6.35-6.65-15.08-14.77-15.08-14.77"/>
    <path class="cls-6" d="M129.83,135.98s13.46,28.49,21.96,49.08c8.49,20.6,18.44,57.82,18.44,57.82,0,0-21.96-33.66-32.04-48.48-10.08-14.82-29.31-47.38-29.31-47.38l-2.98,3.59s-5.24-14.83-14.18-23.87c-8.93-9.04-30.46-15.46-30.46-15.46,0,0,.04-2.22-.25-3.29-.29-1.07-.88-2.8-.88-2.8,0,0-27.33,2.93-47.85-19.94C.37,71.96-.41,58.03,2.27,47.89c2.69-10.17,7.23-13.5,13.03-15.58"/>
    <path class="cls-6" d="M188.97,192.53l-8.12-2.24s-7.27-7.42-12.44-12.14c-4.56-4.17-12.35-12.62-12.35-12.62"/>
    <path class="cls-6" d="M171.08,244.65l-5.44-2.39s-21.19-31.8-25.98-38.63c-4.79-6.83-33.74-53.02-33.74-53.02"/>
  </g>
</svg>