<?xml version="1.0" encoding="UTF-8"?>
<svg id="Layer_2" xmlns="http://www.w3.org/2000/svg" version="1.1" viewBox="0 0 292.2 384.6">
  <!-- Generator: Adobe Illustrator 29.8.2, SVG Export Plug-In . SVG Version: 2.1.1 Build 3)  -->
  <defs>
    <style>
      .st0 {
        fill: #ffbd5c;
      }

      .st1 {
        fill: #d6d6d6;
      }

      .st2, .st3 {
        stroke: #fff;
      }

      .st2, .st3, .st4 {
        stroke-miterlimit: 10;
      }

      .st2, .st3, .st4, .st5, .st6 {
        fill: none;
      }

      .st7 {
        fill: #969595;
      }

      .st8 {
        fill: #ffdab6;
      }

      .st9 {
        fill: #592a00;
      }

      .st10 {
        fill: #af5504;
      }

      .st11 {
        fill: #ffdf57;
      }

      .st12 {
        fill: #f9bb69;
      }

      .st3 {
        stroke-width: .5px;
      }

      .st13 {
        fill: #fff;
      }

      .st14 {
        fill: #fffcf0;
      }

      .st15 {
        fill: #ff9d33;
      }

      .st16 {
        fill: #ffe576;
      }

      .st4 {
        stroke-width: 2px;
      }

      .st4, .st5, .st6 {
        stroke: #000;
      }

      .st5 {
        stroke-miterlimit: 10;
        stroke-width: 2px;
      }

      .st6 {
        stroke-miterlimit: 10;
        stroke-width: 2px;
      }
    </style>
  </defs>
  <g id="Color">
    <path class="st15" d="M255.4,59.3c-6.6-2.6-11.1-6.2-30.9,7-19.7,13.2-55.7,51.3-59,58.3-3.3,7-3.3,12.3-3.3,12.3,0,0-4.6,0-7.6,1.6-3,1.6-6.2,4.4-6.2,4.4,0,0-2.1-2-3.3-5.9,0,0-8,1.6-10.4,3.7,0,0-1-8.1.7-16.8s6.9-27.3,16-40.7c9.1-13.3,10.6-31.4,10.9-39.3.3-7.8-1.3-21.7-16.1-28.1-10-4.3-21,2.1-26.8,4.5-5.1,2.1-16,12.6-17.5,29.7s9.2,29.5,14,33.9c4.8,4.4,6.5,13.6,3.8,24.9-2.7,11.3-6.1,26.5-6.6,35.2s2.5,12.8,2.5,12.8c0,0-9,12.2-11.8,18-2.8,5.7-17.2,19.5-17.2,19.5l5,4.7-.8,2.6,32.2,16.7s6.9-20.1,16.7-30.3c9.8-10.2,27.2-20.8,41.4-24.2,0,0,3.4-9.9,5.5-11.5,0,0,17.2,3.8,36.2-4.8,19-8.5,35.1-20.7,41.9-44.5s-2.8-41.2-9.3-43.8h0ZM130.3,77.1c-9.2-1.8-14.6-14-12.1-27.5,2.6-13.4,7.7-20.1,20.7-21.9,9.2-1.3,10.4,6.1,11.1,8.9,1.6,6.3,3.6,8.8,1.6,19.3-2.6,13.4-12.1,22.9-21.3,21.1h0ZM248.3,111.2c-6.9,10-21.8,22.5-30.5,26.2-8.7,3.7-22.3,8.4-25.6-.9s4.2-16.2,11.4-22.8c7.1-6.7,9.2-4.7,20.7-18.5s21.1-19.5,26.4-15.9c7.7,5.2,3.8,23.2-2.3,31.9Z"/>
    <path class="st10" d="M141.1,26.5s-9.9-5.6-20.2,4.8c-10.3,10.3-11.9,30.8-1.7,41.5,6.2,6.5,12.2,3.8,12.2,3.8,0,0-15.6-3.4-13.3-23.8s13-23.9,23-26.2h0Z"/>
    <path class="st10" d="M148.4,16.4s12.7,7,13.9,27.4c1.2,20.4-11.8,39.9-16.9,50s-11.6,27-10.8,46.7c0,0,2.8-1.8,5.1-2.3,2.3-.5,3.6-1,3.6-1,0,0-2.1-6.7.9-17.2s6.7-19,12.3-28.7c5.6-9.6,16.4-23.2,14.6-48-1.9-24.8-22.6-27-22.6-27h0Z"/>
    <path class="st10" d="M257,60.2s17.3,17.1,6.4,47.1c-10.9,30-37.5,42.3-60,46-10.2,1.7-16.8-1-16.8-1,0,0-1.8,1.5-3.4,5.1s-2.1,6.4-2.1,6.4c0,0-18.1,4.6-31.5,15.6-13.4,11-20.5,22.9-26.5,38.8l3.3,4.9s9.7-24.4,19.9-33.4c10.2-9,34.7-19.6,42.4-21.6,0,0,0-3.6.9-5.4s1.3-3.2,1.3-3.2c0,0,21.6,1.3,40.1-7.9,18.4-9.1,40.7-30.6,41.7-49.6,1-19-3.1-36.3-15.8-42h0Z"/>
    <path class="st9" d="M143.4,184.7c-6.9,6-14.3,18-20.3,33.6l3.3,4.9s8.7-23.5,22.9-36.1c9.5-8.5,39.5-18.8,39.5-18.8l-7.7-4.4s-21.9,7.1-37.7,20.8h0Z"/>
    <circle class="st11" cx="118.3" cy="187.8" r="10.9"/>
    <circle class="st16" cx="118.3" cy="188" r="5.9"/>
    <circle class="st13" cx="118.1" cy="186.6" r="2.2"/>
    <path class="st14" d="M113.6,193.1l-1.7,4s1.5,1.2,4.2,1.8c2.7.6,6.2-1.4,6.2-1.4l-2.1-4s-1.6.6-3.5.3-3.1-.8-3.1-.8h0Z"/>
    <path class="st0" d="M112,190.6l-3.1,3.7s-1.6-2.6-1.5-4.4.3-4.5.3-4.5l4,1.2s0,.9.4,2.1c.2,1.3,0,1.8,0,1.8h0Z"/>
    <polygon class="st13" points="124.5 188.9 128.2 190.1 126.8 193.9 123.4 191.4 124.5 188.9"/>
    <polygon class="st12" points="113 183.8 109.5 181.9 111.7 179.5 114.7 182.3 113 183.8"/>
    <line class="st3" x1="108.3" y1="183.5" x2="112.5" y2="185.1"/>
    <line class="st3" x1="127.9" y1="183.1" x2="123.8" y2="184.9"/>
    <path class="st1" d="M93.2,202.8s-22.8,49.7-33.9,76-21.8,70.9-21.8,70.9c0,0,19.9-32.6,25.7-40s30.4-44.3,33.5-49.5c3.1-5.2,26.4-41.8,26.4-41.8l-29.9-15.6h0Z"/>
    <path class="st1" d="M89.5,195.8c0,.1-27.3,27.3-41.6,43.7s-31.8,38-31.8,38l1.1,29s22.8-22.4,26.9-26.5c4.1-4.2,23.3-23,23.3-23l12.8-25.7,12.9-28.4-2.3-1.2.8-2.6s-2.2-3.2-2.2-3.2Z"/>
    <path class="st7" d="M123.1,218.3s-45.8,71.5-55.7,85.4c-9.8,13.9-32.1,49.8-32.1,49.8l7.6-3.3s24.9-37,30.7-45.4c5.8-8.4,28.9-43.8,33-50.4,4.1-6.6,19.8-31.3,19.8-31.3l-3.3-4.9h0Z"/>
    <path class="st13" d="M101.2,207c-23.6,44.3-45,90-61.1,137.6l-1-.3c11.6-35.9,26.6-70.7,43-104.7,5.5-11.3,11.1-22.6,17-33.7l2.2,1.2h0Z"/>
    <path class="st13" d="M107.7,210c-20.6,37.9-39,77.1-55.5,116.9l-.9-.4c12.1-30.1,25.3-59.7,39.6-88.8,4.8-9.7,9.6-19.4,14.8-28.9l2.2,1.2h0Z"/>
    <path class="st13" d="M91.7,202.4c-26.3,26.8-51.1,55.2-74.4,84.8l-.8-.6c17.2-22.5,35.2-44.2,54.2-65.2,6.3-7,12.7-13.9,19.2-20.7l1.8,1.7h0Z"/>
    <polygon class="st13" points="91.2 205.9 17.3 294.3 16.5 293.7 89.3 204.4 91.2 205.9 91.2 205.9"/>
    <path class="st8" d="M112.5,32.3c-6.4,6.9-7.8,17.3-5.1,26.1,2.3,9.4,6.2,17.3,14.9,22l-1.7,2.8c-2-1.3-4.1-2.8-5.9-4.6-5.5-5.2-7.9-12.6-9.4-19.7-2.4-9.5-.5-20.3,6.5-27.3l.7.7h0Z"/>
    <path class="st8" d="M127.3,87.4c2.5,4.8,1.9,10.2,1.6,15.2-.9,9.8-4.6,19.1-6.6,28.6-.9,4.6-2,9.6-1.1,14.2l-1,.2c-1.1-4.9-.2-9.9.6-14.8,1.7-9.6,5.1-18.8,5.7-28.6.2-4.4.5-9.5-1.6-13.5l2.4-1.6h0Z"/>
    <path class="st8" d="M115.8,174.1c.3-10.1,15.1-26.8,25.5-26.7,4.1.5,2.9,4.7,8.3,3.5,5.1-1.5,5.9-9,11.5-9.9l.2,1c-6.1,1.7-5.9,10.8-13.4,10.7-1.5.1-3.2-.5-4.2-1.6-.9-.9-1.3-1.7-2.6-1.8-8.2.6-16.8,11-20.3,17.9-1.1,2.2-1.9,4.6-1.9,6.9h-3.1s0,0,0,0Z"/>
    <path class="st8" d="M126.6,182.1c9-11.4,21.5-20.3,35.6-23.9,6.3-1.4,13.8-2.5,19.4,1.6l-.7.7c-.9-.7-2.1-1.2-3.3-1.5-12.9-3-28.6,5.6-38.1,13.8-3.7,3.3-7.4,7.1-10.2,11.1l-2.7-1.9h0Z"/>
    <path class="st2" d="M130.5,187.9s11.4-14,17.8-17.6,14.7-8.1,21.9-8.1,10.9,1.6,10.9,1.6"/>
    <path class="st2" d="M108,208.1s1.2-3.8,5.1-3.8c3.9,0,8.5.6,11.9-2.3,3.4-2.9,1.8-8,1.8-8"/>
  </g>
  <g id="Line">
    <path class="st4" d="M115.7,156.7c-4.2-4.7-2.5-19.1-.2-29.9s8.3-27.7,4-38c-3.2-7.4-16.4-12-17.6-36.3-.9-18.5,14.1-35.6,33.7-38.2,12.1-1.6,29.1,8.2,26.4,36.4-2.6,27.4-16.9,37.8-23.2,58.2-6.2,20.4-4.1,32.2-4.1,32.2"/>
    <path class="st4" d="M140.1,14.2s13.8-1,23.8,11.7c10,12.7,8.6,31.1,4.2,43.5s-16.8,27.4-22.5,44.5-2.6,24.4-2.6,24.4"/>
    <ellipse class="st5" cx="132.4" cy="51.1" rx="26.5" ry="20.2" transform="translate(54.3 169.6) rotate(-77.7)"/>
    <path class="st4" d="M132.3,77.2c-10.9-2.4-16.9-15.6-14-29.1,2.9-13.5,14.3-22.9,25.2-20.5"/>
    <path class="st4" d="M145.8,136.6s-20.9,4.3-36.2,29.4-18.8,34.9-18.8,34.9l31.7,16.9s7.5-17.3,14.4-26.4c7-9.1,22.3-19.4,31.9-22.9s12.2-4.4,12.2-4.4c0,0,2.8-9.2,5.9-12,0,0,13,5.1,34.2-3.6s33.5-19.6,39.5-33.6c6-14,12.3-40.7-4.7-54.9s-48.5,21.8-59.4,31.6c-10.9,9.8-20.5,19.3-27.1,27.9-6.6,8.6-7.4,17.3-7.4,17.3,0,0-3.6.3-6.7,1.6-3.2,1.4-6.8,4.4-6.8,4.4,0,0-2.2-3.1-2.8-5.9h0Z"/>
    <ellipse class="st6" cx="118.1" cy="187.8" rx="11.7" ry="10.6" transform="translate(-97.1 133.9) rotate(-43.8)"/>
    <ellipse class="st6" cx="118.1" cy="187.8" rx="6.3" ry="5.8" transform="translate(-97.1 133.9) rotate(-43.8)"/>
    <polyline class="st4" points="92 198.1 86.7 194.2 103.1 177"/>
    <path class="st4" d="M93.4,202.2s-18.9,39.7-30.9,68.3c-12,28.7-26,80.5-26,80.5,0,0,30.8-46.8,44.9-67.4,14.1-20.6,41.1-65.9,41.1-65.9l4.1,5s7.4-20.7,19.9-33.2c12.5-12.6,42.6-21.4,42.6-21.4,0,0,0-3.1.4-4.6.4-1.5,1.2-3.9,1.2-3.9,0,0,38.1,4.2,66.8-27.6,16.7-18.5,17.9-37.9,14.2-52.1s-10-18.9-18.1-21.8"/>
  </g>
</svg>