<?xml version="1.0" encoding="UTF-8"?>
<svg id="Layer_2" data-name="Layer 2" xmlns="http://www.w3.org/2000/svg" viewBox="0 0 179.07 195.11">
  <defs>
    <style>
      .cls-1 {
        fill: #939393;
      }

      .cls-2 {
        fill: #ebe6ff;
      }

      .cls-3 {
        fill: #efefef;
      }

      .cls-4 {
        fill: #863dad;
      }

      .cls-5 {
        fill: #e5e5e5;
      }

      .cls-6, .cls-7 {
        fill: none;
        stroke: #000;
        stroke-miterlimit: 10;
      }

      .cls-7 {
        stroke-width: 2px;
      }

      .cls-8 {
        fill: #ae76cc;
      }
    </style>
  </defs>
  <g id="Color_2" data-name="Color 2">
    <path class="cls-2" d="M170.75,55.17c14.9,29.42-2.21,47.42-9.15,58.09-8.58,13.21-67.24,68.76-75.32,74.2-8.08,5.43-31.45,17.88-61.6-9.04C-12.65,145.09,1.62,120.62,8.48,109.33c12.79-21.06,44.96-75.27,61.38-95.74,5.92-7.38,27.56-16,52.22-4.53,0,0,5.64-4.58,11.26-6.91,6.78-2.81,15.69-4.18,29.51,4.36,7.56,4.67,16.49,18.2,16.22,30.25-.18,8.18-8.32,18.42-8.32,18.42Z"/>
  </g>
  <g id="Color">
    <path class="cls-4" d="M81.05,21.54c-10.4,6.15-39.12,55.04-46.37,66.95-7.25,11.91-21.29,31.46-21.78,43.01-.49,11.55,2.12,21.73,17.95,36,15.84,14.27,30.34,14.53,44.62,8.88,14.28-5.65,39.9-35.46,47.01-42.93,7.12-7.47,28.3-30.08,33.92-41.59,7.1-14.54,5.63-27.46-.58-40.45,0,0-3.98,3.79-6.84,7.01-6.83,7.69-18.06,17.61-31.36,4.53-11.85-11.64-12.25-17.74-6.95-25.5,4.15-6.07,13.27-15.21,13.27-15.21,0,0-24.9-11.35-42.9-.7Z"/>
    <path class="cls-5" d="M130.73,15.56c-1.45,1.34-10.41,10.8-14.68,15.66-4.27,4.86-9.35,8.97-8.12,17.4,1.22,8.43,8.64,13.62,10.86,15.42s11.22,8.65,20.91,3.83c5.86-2.92,12.97-13.26,16.14-16.45s7.6-9.95,8.57-11.88c0,0-7.84,6.61-23.26-4.9-15.41-11.5-10.42-19.07-10.42-19.07Z"/>
    <path class="cls-3" d="M132.07,15.17c-3.6,2.5-2.08,7.86,2.28,12.65,5.27,5.8,10.55,9.88,12.73,10.59,2.17.71,13.45,5.75,17.78-.49,4.33-6.24-7.03-17.47-11.72-19.83s-13.75-7.98-21.07-2.92Z"/>
    <path class="cls-1" d="M137.09,18.19c-1.27,1.65,1.7,9.52,10.26,14.62,8.56,5.1,11.41,3.32,12.07,2.31s.1-7.05-8.68-13.15c-8.46-5.87-12.46-5.31-13.65-3.78Z"/>
    <path class="cls-8" d="M77.21,23.84c-9.77,8.84-8.27,42.68,27.68,65.33,35.96,22.65,50.4,4.81,53.67-1.63,3.27-6.45,5.37-23.63-2.73-36.12,0,0-12.11,16.29-19.18,17.33-14.32,2.1-26.36-10.9-28.73-20.12-2.37-9.23,16.03-26.38,16.03-26.38,0,0-29.45-14.04-46.74,1.6Z"/>
  </g>
  <g id="Line">
    <path class="cls-7" d="M155.83,51.41c13.14,22.72.59,41.3-5.63,50.91-7.7,11.89-59.2,63.71-66.22,68.97-7.02,5.26-27.21,17.7-51.82-2.69-30.47-25.24-17.56-47.14-11.39-57.25,11.53-18.88,40.57-67.43,55.15-86.1,5.26-6.73,24.12-14.79,47.53-3.27"/>
    <path class="cls-7" d="M159.07,47.53l-14.66,16.66c-5.79,6.58-15.86,5.69-20.57,2.88-4.37-2.61-8.63-5.19-12.88-11.21-3.61-5.12-4.81-13.39.81-19.78l14.56-16.54c7.46-8.54,14.72-7.01,19.14-5.63,5.53,1.73,11.97,6.16,15.11,9.86,4.3,5.06,9.13,11.94-1.52,23.77Z"/>
    <path class="cls-7" d="M164.86,37.92c-3.02,6.16-15,3.33-22.93-3.1-8.27-6.7-14.66-13.59-10.68-19.42"/>
    <path class="cls-7" d="M157.24,90.14c-13.48,17.43-38.92,11.51-61.2-7.03-22.28-18.54-31.14-44.62-19.8-58.25"/>
  </g>
  <g id="Line_2" data-name="Line 2">
    <path class="cls-6" d="M42.82,75.23c1.29.29,10.25,11.65,28.31,19.23,18.06,7.58,49.49,14.84,76.94,3.74"/>
    <path class="cls-6" d="M40.35,79.21s11.78,12.22,24.12,18.14c12.34,5.91,30.05,9.29,44.08,10.32,14.04,1.03,30.16,2.14,39.94-3.02"/>
    <path class="cls-6" d="M37.97,83.08s9.1,9.28,17.44,14.37c8.35,5.09,28.92,11.69,40.79,13.56,11.87,1.87,31.37,4.37,47.26-.25"/>
    <path class="cls-6" d="M35.76,86.68s5.04,8.73,23.64,17.17c18.59,8.44,39.56,12.68,56.81,13.13,17.25.45,22.78-1.16,22.78-1.16"/>
    <path class="cls-6" d="M33.86,89.8s1.11,5.5,25.6,18.16c24.49,12.66,54.9,17.29,71.82,16.22"/>
    <path class="cls-6" d="M143.05,65.5c1.49,3.74,1.53,7.08-.2,9.36-4.08,5.36-16.48,2.77-27.71-5.78-11.23-8.55-17.6-20.72-12.38-28.31,2.03-2.95,4.69-4.36,8.38-3.92"/>
    <path class="cls-6" d="M146.09,63.17c1.95,4.92,4.27,10.81.83,15.32-5.36,7.03-20.55,6.78-35.29-4.44-14.74-11.23-20.12-26.74-13.26-36.71,2.67-3.88,10.32-6.67,15.67-3.83"/>
    <path class="cls-6" d="M148.88,59.11c5.25,8.7,7.17,18.54,2.73,24.37-6.93,9.1-25.12,7.94-42.19-5.05-6.4-4.87-12.13-10-15.48-15.87-5.59-9.77-5.74-20.58.2-28.36,6.96-9.14,16.33-6.95,22.6-3.77"/>
    <path class="cls-6" d="M152.75,54.71c5.6,10.37,8.95,22.8,2.6,31.33-9.54,12.83-30.41,12.27-49.8-2.49-7.27-5.54-13.72-11.45-17.27-18.45-5.92-11.67-6.17-27.87,1.2-35.3,10.06-10.14,23.23-8.12,31.22-3.89"/>
    <path class="cls-6" d="M112.15,17.76s-12.18-1.92-22.57,5.13c-10.39,7.05-14.13,15.04-13.44,23.29s1.59,14.46,6.44,22.79"/>
    <ellipse class="cls-6" cx="148.22" cy="26.58" rx="5.6" ry="14.31" transform="translate(37.28 128.4) rotate(-52.71)"/>
    <path class="cls-6" d="M48.29,66.48s.26,3.36,2.24,9.13c1.45,4.21,4.32,9.72,4.32,9.72"/>
    <path class="cls-6" d="M51.96,60.66s1.65,7.69,4.27,14.74c3.47,9.33,8.34,15.96,8.34,15.96"/>
    <path class="cls-6" d="M56.54,54.21s2.79,11.44,7.09,21.38c5.13,11.86,11.91,20.07,11.91,20.07"/>
    <path class="cls-6" d="M60.31,48.14s4.06,13.94,9.5,26.11c6.48,14.51,14.27,24.65,14.27,24.65"/>
    <path class="cls-6" d="M64.25,41.96s5.6,16.18,12.41,30.32c8.12,16.86,17.12,28.66,17.12,28.66"/>
    <path class="cls-6" d="M67.55,36.84c3.95,13.6,7.19,23.28,18.15,42.77s19.01,23.57,19.01,23.57"/>
    <path class="cls-6" d="M70.34,118.12s6.42-.84,9.77-1.65"/>
    <path class="cls-6" d="M73.61,122.56s3.39-.13,7.02-1.04,6.62-2.91,6.62-2.91"/>
    <path class="cls-6" d="M76.3,126.12s4.15-1.82,7.45-2.16,9.47-1.68,11.97-3.26"/>
    <path class="cls-6" d="M80.6,129.95s5.4-1.41,10.96-3.25,10.58-4.73,10.58-4.73"/>
    <path class="cls-6" d="M85.17,133.94c0-.22,5.4-1.54,11.57-3.76,6.78-2.43,12.9-7.04,12.9-7.04"/>
    <path class="cls-6" d="M88.42,136.6s4.05-.83,10.04-2.91,9.25-4.51,12.47-6.08c3.23-1.57,5.82-3.7,5.82-3.7"/>
    <path class="cls-6" d="M124.39,124.31s-5.64,5.56-15.23,9.76c-9.59,4.19-16.54,5.8-16.54,5.8"/>
    <path class="cls-6" d="M94.98,141.72s2.56-.74,8.31-1.42,13.31-3.15,18.8-6.44"/>
    <path class="cls-6" d="M66.48,111.65s5.55,10.49,14.12,18.3c8.57,7.81,18.68,14.77,18.68,14.77"/>
    <path class="cls-6" d="M57.1,106.73s5.14,9.99,11.83,17.18,10.55,12.22,14.58,16.1c4.03,3.88,5.32,4.45,5.32,4.45"/>
    <path class="cls-6" d="M48.99,102.18s3.2,6.49,8.48,14.69c5.28,8.2,9.67,15.28,13.76,20.12s4.95,5.36,4.95,5.36"/>
    <path class="cls-6" d="M114.9,141.28s-15.68,7.72-42.53.13c-28.74-8.12-49.52-33.46-49.52-33.46"/>
    <path class="cls-6" d="M40.53,96.6s3.39,10.63,10.86,22.6c7.47,11.97,14.93,20.2,14.93,20.2"/>
    <path class="cls-6" d="M35.07,91.72s1.11,9.53,5.89,20.33c4.78,10.8,12.07,21.01,12.07,21.01"/>
    <path class="cls-6" d="M32.21,92.55s-.29,6.55,2.71,16.9c2.07,7.13,5.93,15.41,5.93,15.41"/>
    <path class="cls-6" d="M20.77,111.35s7.98,12.63,31.55,25.96c18.47,10.44,33.95,15.44,55.28,11.36"/>
    <path class="cls-6" d="M18.79,114.7s3.6,5.21,17.79,17.25c14.18,12.04,26.08,17.95,39.06,20.98,12.99,3.03,22.22,1.89,28.19-.47"/>
    <path class="cls-6" d="M17.2,117.67s4.35,6.99,18.32,18.78c13.97,11.79,24.1,17.57,36.21,21.64,12.11,4.07,20.04,3.33,26.22.17"/>
    <path class="cls-6" d="M15.52,121.38s4.35,12.01,24.84,26.33,37.71,19.45,50.44,17.46"/>
    <path class="cls-6" d="M16.49,150.1c1.22-.07,6.49,1.51,11.86.95,5.36-.56,10.04-2.3,14.21-1.83"/>
    <path class="cls-6" d="M19.08,154.53s6.73,1.92,15.38.97c8.65-.95,14.21-2.38,14.21-2.38"/>
    <path class="cls-6" d="M23.28,160.02s6.34,1.28,13.12.24,13.3.18,19.74-2.75"/>
    <path class="cls-6" d="M27.63,164.71c3.36,1.08,13.89.26,20.8-.76,6.91-1.01,15.08-3.26,15.08-3.26"/>
  </g>
</svg>