<?xml version="1.0" encoding="UTF-8"?>
<svg id="Layer_2" data-name="Layer 2" xmlns="http://www.w3.org/2000/svg" viewBox="0 0 198.9 116.93">
  <defs>
    <style>
      .cls-1 {
        fill: #d32093;
      }

      .cls-2 {
        fill: #930359;
      }

      .cls-3 {
        fill: #592a00;
      }

      .cls-4 {
        fill: #af5504;
      }

      .cls-5 {
        fill: #ff9d33;
      }

      .cls-6, .cls-7 {
        fill: none;
        stroke: #000;
        stroke-miterlimit: 10;
      }

      .cls-7 {
        stroke-width: 2px;
      }
    </style>
  </defs>
  <g id="Color">
    <polygon class="cls-5" points="140.82 1.05 2.75 86.98 82.51 99.64 149.37 47.99 196.53 9.19 140.82 1.05"/>
    <polygon class="cls-4" points="1.13 87.43 1 98.19 82.13 115.66 82.51 99.64 1.13 87.43"/>
    <polygon class="cls-3" points="197.6 9.03 197.87 19.63 137.3 71.2 82.13 115.66 82.51 99.64 197.6 9.03"/>
    <path class="cls-2" d="M85.91,81.54s-1.5-2.12-3.05-1.84c-1.55.29-2.86,2.19-2.86,2.19,0,0,1.72,2.17,2.65,2.22s1.88-.45,2.61-1.01.65-1.57.65-1.57Z"/>
    <path class="cls-1" d="M85.94,83.05s-1.42,1.13-2.47,1.12c-1.05,0-3.02-1.08-3.02-1.08,0,0,.78,2.38,2.62,2.38,1.84,0,2.57-1.31,2.87-2.42Z"/>
  </g>
  <g id="Line">
    <path class="cls-7" d="M140.82,1.05s-55.34,34.98-64.34,40.25C69.31,45.5,2.75,86.98,2.75,86.98c0,0,29.59,5.25,37.59,6.16,7.95.9,42.17,6.5,42.17,6.5,0,0,57.39-44.47,63.67-49.3,6.28-4.82,50.35-41.16,50.35-41.16,0,0-24.63-3.92-30.33-4.52-5.7-.6-25.39-3.62-25.39-3.62Z"/>
    <path class="cls-7" d="M1.13,87.43c-.14,6.72-.13,10.91-.13,10.91,0,0,36.12,7.93,39.3,8.54,3.18.6,42.01,8.82,42.01,8.82l.2-16.06"/>
    <path class="cls-7" d="M197.9,8.55l-.02,11.08s-53.2,44.89-57.89,49.26-57.67,46.81-57.67,46.81"/>
  </g>
  <g id="Line_2" data-name="Line 2">
    <line class="cls-6" x1="74.11" y1="85.62" x2="95.3" y2="89.73"/>
    <line class="cls-6" x1="93.45" y1="80.2" x2="103.88" y2="83.23"/>
    <line class="cls-6" x1="100.01" y1="74.78" x2="110.43" y2="77.81"/>
    <line class="cls-6" x1="106.79" y1="69.68" x2="117.21" y2="72.71"/>
    <line class="cls-6" x1="129.68" y1="51.7" x2="140.1" y2="54.74"/>
    <line class="cls-6" x1="136.01" y1="47.08" x2="146.44" y2="50.12"/>
    <line class="cls-6" x1="141.98" y1="42.51" x2="152.4" y2="45.55"/>
    <line class="cls-6" x1="148.16" y1="37.94" x2="158.59" y2="40.97"/>
    <line class="cls-6" x1="162.58" y1="23.27" x2="173.01" y2="26.31"/>
    <line class="cls-6" x1="164.34" y1="23.82" x2="174.76" y2="26.86"/>
    <line class="cls-6" x1="169.55" y1="20.24" x2="179.97" y2="23.27"/>
    <line class="cls-6" x1="173.59" y1="16.1" x2="184.02" y2="19.14"/>
    <line class="cls-6" x1="178.41" y1="12.28" x2="188.84" y2="15.31"/>
    <line class="cls-6" x1="113.02" y1="64.58" x2="123.45" y2="67.61"/>
    <line class="cls-6" x1="111.28" y1="56.32" x2="132.47" y2="60.43"/>
    <line class="cls-6" x1="147.19" y1="28.22" x2="168.38" y2="32.33"/>
    <line class="cls-6" x1="19.71" y1="76.41" x2="30.15" y2="78.01"/>
    <line class="cls-6" x1="34.48" y1="67.49" x2="44.91" y2="69.08"/>
    <line class="cls-6" x1="48.8" y1="58.29" x2="59.23" y2="59.89"/>
    <line class="cls-6" x1="64.3" y1="48.75" x2="74.73" y2="50.34"/>
    <line class="cls-6" x1="79.49" y1="39.38" x2="89.92" y2="40.97"/>
    <line class="cls-6" x1="92.12" y1="31.53" x2="102.55" y2="33.13"/>
    <line class="cls-6" x1="106.06" y1="23.14" x2="116.49" y2="24.73"/>
    <line class="cls-6" x1="116.66" y1="15.98" x2="127.09" y2="17.57"/>
    <line class="cls-6" x1="25.64" y1="90.91" x2="155.95" y2="3.29"/>
    <line class="cls-6" x1="66.17" y1="96.02" x2="180.85" y2="6.74"/>
    <circle class="cls-6" cx="83.4" cy="81.87" r="8.59"/>
    <path class="cls-6" d="M74.93,83.26s-1.51-6.59.26-9.48c1.77-2.89,4.03-5.46,9.72-4.97,5.08.44,7.36,5.6,7.62,7.63s-1,8.05-1,8.05"/>
    <circle class="cls-6" cx="83.21" cy="82.57" r="2.9"/>
    <path class="cls-6" d="M85.92,81.55c-.06.55-.28,1.1-.66,1.56-1.03,1.23-2.85,1.39-4.08.36-.31-.26-.55-.56-.72-.9"/>
    <rect class="cls-6" x="30.53" y="94.33" width="24.93" height="10.98" rx=".62" ry=".62" transform="translate(70.43 -5.34) rotate(37.93)"/>
  </g>
</svg>