<?xml version="1.0" encoding="UTF-8"?>
<svg id="Layer_2" data-name="Layer 2" xmlns="http://www.w3.org/2000/svg" viewBox="0 0 288.45 1079.14">
  <defs>
    <style>
      .cls-1 {
        fill: #d6d6d6;
      }

      .cls-2 {
        fill: #b5b5b5;
      }

      .cls-3 {
        fill: #fff8f8;
      }

      .cls-4 {
        fill: #f9e5e5;
      }

      .cls-5 {
        fill: #969595;
      }

      .cls-6 {
        fill: #fff0f0;
      }

      .cls-7 {
        fill: #fff;
      }

      .cls-8 {
        fill: #eadcdc;
      }

      .cls-9, .cls-10 {
        fill: none;
        stroke: #000;
        stroke-miterlimit: 10;
      }

      .cls-11 {
        fill: #f7f7f7;
      }

      .cls-12 {
        fill: #f2f2f2;
      }

      .cls-10 {
        stroke-width: 2px;
      }

      .cls-13 {
        fill: #e2d0d0;
      }

      .cls-14 {
        fill: #f2dada;
      }
    </style>
  </defs>
  <g id="Color">
    <path class="cls-6" d="M207.26,11.05s-3.11,40.56-2.38,43.52c.73,2.96,22.86,9.83,34.12,14.29,11.26,4.45,45.39,18.01,48.6,22.75,3.21,4.74-3.44,16.06-7.26,25.9-3.83,9.83-9.8,22.29-12.33,31.83-2.53,9.54-1.44,22.93-8.97,43.7-7.53,20.77-20.72,39.86-22.97,73.43-2.77,41.32,19.35,69.35,21.69,103.26,2.34,33.91,1.17,55.3-4.72,86.11-5.89,30.81-17.75,63.94-28.45,79.42-10.71,15.48-85.42-13.61-89.92-29.93-3.28-11.92-3.2-25.3-3.14-38.08.06-12.78,6.52-32.33,6.52-32.33,0,0-5.26,6.01-9.09,5.89-3.83-.12-6.52-4.37-6.52-4.37,0,0,1.99,22.02,1.61,30.58-.38,8.56-1.93,21.9-4.63,36.27-2.7,14.37-70.35,39.15-86.97,27.56-16.62-11.59-33.04-81.79-29.52-116.66,3.52-34.87,33.5-95.95,39.76-140.25,6.26-44.3-10.63-75.91-13.35-101.34-1.62-15.15.29-27.01.17-36.51-.12-9.5-1.23-20.88-2.12-28.05s-7-22.3-6.11-28.46,30.31-13.31,48.76-16.69c18.44-3.37,45.41-9.45,47.76-11.36,3.53-2.86,4.61-45.13,4.61-45.13,0,0,3,6.46,42.02,9.61,39.02,3.15,42.82-4.96,42.82-4.96Z"/>
    <path class="cls-2" d="M120.97,6.32l-.62,17.05s12.76,8.46,38.44,9.75c25.68,1.29,46.07-4.85,46.07-4.85l.95-17.3s-2.46,7.8-42.82,4.96c-40.36-2.84-42.02-9.61-42.02-9.61Z"/>
    <path class="cls-1" d="M120.97,6.32c-.81,3,17.24,8.58,45.65,10,28.41,1.42,38.48-2.41,39.19-5.35.71-2.94-25.19-8.56-37.96-9.35-12.77-.79-45.48-.46-46.88,4.7Z"/>
    <path class="cls-13" d="M79.76,60.65c-26.7,12.45-29.84,36.38-29.96,58.65s-10.67,25.71-14.14,50.35c-3.48,24.64,2.51,51.21,36.64,53.21,27.99,1.64,42.72-11.46,54.57,2.99,11.85,14.45-18.13,6.19-35.64,13.86-19.27,8.44-32.48,26.34-39.28,57.01-6.79,30.67-16.51,58.08-27.18,89.45-10.1,29.72-7.2,115.49,17.32,147.54,0,0,.27,4.79-11.09-2.95-11.35-7.74-35.58-73.35-29.52-116.66,6.06-43.31,36.57-100.44,39.32-157.26,2.75-56.82-13.86-60.29-13.3-90.57.56-30.28,1.11-45.04-3.28-65.92-4.39-20.87-10.3-23.77,12.25-29.9s43.29-9.82,43.29-9.82Z"/>
    <path class="cls-8" d="M222.88,62.96c22.54,15.04,22.31,42.89,20.12,64.88-2.19,22,6.87,26.48,7.42,51.17.56,24.69-14.79,49.44-47.68,48.28-25.16-.88-34.17-15.57-46.24-2.53-12.07,13.04,22.28,8.3,37.1,17.67,16.32,10.32,26.27,29.36,29.16,60.34,2.89,30.98,8.74,59.04,15.01,91.11,5.95,30.38-8.2,116.17-33.39,145.28,0,0,6.47,2.73,17.69-3.22,8.74-4.63,37.56-82.4,35.18-152.28-1.28-37.49-26.81-77.34-21.81-123.54,4.11-38.02,22.61-57.89,27.09-87.63,2.85-18.93,7.75-38.1,17.55-58.93,11.06-23.5,7.61-22.63-12.57-31.94-17.47-8.05-44.64-18.67-44.64-18.67Z"/>
    <path class="cls-3" d="M66.26,132.07c-14.99,4.73-20.08,23.19-20.06,32.86.02,9.68,8.95-.06,20.97-2.87,12.02-2.81,29.37,3.8,42.04,5.95,12.66,2.15,25.85.73,24.54-13.24-1.32-13.97-44.82-29.86-67.49-22.71Z"/>
    <path class="cls-3" d="M224.03,140.71c14.38,6.34,17.43,25.24,16.35,34.86-1.07,9.62-8.89-1.03-20.53-5.14-11.64-4.11-29.61.57-42.44,1.33-12.82.76-25.78-2.1-22.94-15.84,2.83-13.74,47.81-24.79,69.56-15.2Z"/>
    <path class="cls-14" d="M91.09,368.94c5.41,11.25,1.06,35.67-2.75,50.25-3.81,14.58-8.52,60.61-7.35,74.1,1.18,13.49,2.21,28.62,10.26,27.68,8.05-.95,27.59-11.09,28.19-22.4.74-13.93,4.53-39.9,2.19-54.55-1.36-8.48-2.79-17-9.54-35.86-6.83-19.08-21-39.22-21-39.22Z"/>
    <path class="cls-14" d="M179.21,376.91c-6.61,10.59-10.04,28.99-7.84,43.9,2.2,14.91,1.85,61.18-.79,74.46-2.64,13.28-5.32,28.21-13.22,26.39-7.9-1.82-24.63-9.51-25.19-20.82-.83-16.62-4.16-32.51-.13-49.45,1.99-8.35,4.7-18.8,13.47-36.81,8.88-18.22,33.7-37.66,33.7-37.66Z"/>
    <path class="cls-1" d="M133.7,19.39c-.3,5.48-.52,9.45-.52,9.45l5.76,1.56s-.41-7.58-.21-9.49c.2-1.91,1.17-8.02,1.17-8.02l-5.28-.29s-.78,4.27-.92,6.78Z"/>
    <path class="cls-11" d="M138.39,19.64c-.3,5.48-.52,9.45-.52,9.45l9.53,1.77s-.94-7.61-.69-9.52c.25-1.9,1.1-6.63,1.1-6.63l-8.33-1.15s-.96,3.56-1.1,6.08Z"/>
    <path class="cls-5" d="M157.93,21.86c-.31,5.73-.54,9.88-.54,9.88l12.59,1.99s-1.35-7.98-1.05-9.97c.31-1.99,1.35-6.92,1.35-6.92l-11-1.33s-1.21,3.71-1.36,6.34Z"/>
    <path class="cls-1" d="M199.16,21.03c-.3,5.48-.52,9.45-.52,9.45l-5.9.92s1.24-7.49,1.25-9.41c.01-1.92-.29-8.1-.29-8.1l5.28.29s.31,4.33.17,6.84Z"/>
    <polygon class="cls-12" points="130.23 11.81 129.37 27.46 130.55 28.54 131.41 12.98 130.23 11.81"/>
    <polygon class="cls-7" points="198.28 14.57 197.42 30.22 198.6 31.29 199.45 15.73 198.28 14.57"/>
    <polygon class="cls-7" points="189.53 15.06 188.67 30.71 189.85 31.79 190.7 16.22 189.53 15.06"/>
    <polygon class="cls-1" points="202.45 13.58 201.59 29.23 204.35 30.39 205.2 14.83 202.45 13.58"/>
    <path class="cls-7" d="M182.59,3.57c13.21,3.75,8.87,9.72.82,11.7-8.05,1.98-2.57,1.98-1.54,1.45s22.81-2.36,23.94-5.76c1.12-3.4-23.22-7.4-23.22-7.4Z"/>
    <path class="cls-7" d="M144.51,4.48c-2.97.08-14.81-.15-16.08,2.34.01.13.21.23.37.32,1.25.62,2.74.92,4.17,1.25,4.34.91,8.75,1.49,13.16,2.01,11.61,1.12,23.69,2.59,35.29,1.21,0,0,.29,1.65.29,1.65-6.04.79-11.96.3-17.96-.06-8.9-.68-17.77-1.69-26.55-3.26-1.45-.41-12.86-1.87-8.23-4.36,2.11-.87,4.41-.95,6.64-1.12,2.94-.11,6.07-.24,8.91,0h0Z"/>
    <path class="cls-3" d="M59.28,372.9c14.69,2.17,21.98,9.97,17.36,31.99-4.62,22.02-12.1,52.02-12.49,75.87-.39,23.85,4.43,37.17-9.39,35.36-13.82-1.8-19.05-26.19-20.28-63.88-1.22-37.68,2.7-82.62,24.8-79.35Z"/>
    <path class="cls-3" d="M207.13,379.61c-14.84.55-22.93,7.51-20.75,29.91,2.18,22.4,6.35,53.03,4.13,76.78s-8.46,36.46,5.47,36.18,21.8-23.96,27.13-61.28c5.33-37.32,6.34-82.42-15.98-81.58Z"/>
    <path class="cls-3" d="M50.95,332.07c-1.62,4.88,26.37,13.55,59.21,19.16,32.83,5.61,105.49-5.75,106.28-10.09.79-4.34-35.68,5.99-88.1.65-52.43-5.34-73.45-21.55-77.38-9.72Z"/>
    <path class="cls-3" d="M148.94,252.04c-24.98-.37-54.12,1.14-57.04,9.48-2.92,8.33,11.61,7.21,23.83,9.52s1.69,14.61,6.77,21.74c5.09,7.13,28.83,3.72,27.12,15.02-1.71,11.3,3.15,18.85,13.73,12.63,10.57-6.21,8.05-31.72-3.09-32.66-11.13-.93-19.51-12.9-13.86-16.15,5.65-3.25,31.76-4.83,31.63-12.51-.13-7.68-8.48-6.76-29.1-7.07Z"/>
    <path class="cls-4" d="M98.44,377.97c9.74,8.93,20.95,38.95,33.19,39.62,9.1.5,23.95-29.36,39.69-35.62,0,0-22.26,23.87-27.7,36.58-5.44,12.71-7.31,19.06-14.65,22.27-7.34,3.2-13.63-19.46-16.88-32.65-3.25-13.19-13.85-26.41-13.85-26.41"/>
    <path class="cls-1" d="M135.46,509.37l-31.08,567.04-22.6,1.65,31.19-568.92s5.08-.73,6.53-11.6c.67-5.04,4.32-30.9,3.56-33.77-.77-2.87-2.71-27.13-2.71-27.13,0,0,4.4,4.33,7.16,4.09s8.18-4.21,8.18-4.21c0,0-5.76,19.41-5.6,30.24.15,10.83-.64,36.07,5.37,42.61Z"/>
    <path class="cls-5" d="M104.38,1076.41l-6.4.47,33.59-637.24,4.02-3.23,1.59-1.28s-3.87,8.36-6.07,30.7c-2.2,22.34,4.19,45.97,4.19,45.97l-30.93,564.61Z"/>
    <polygon class="cls-7" points="91.83 1077.33 88.01 1077.61 122.56 446.83 121.9 439.11 126.68 441.07 91.83 1077.33"/>
  </g>
  <g id="Line">
    <ellipse class="cls-10" cx="163.39" cy="8.65" rx="7.29" ry="42.48" transform="translate(145.82 171.32) rotate(-86.86)"/>
    <path class="cls-10" d="M205.81,10.97s-3.11,40.56-2.38,43.52c.73,2.96,22.86,9.83,34.12,14.29,11.26,4.45,45.39,18.01,48.6,22.75,3.21,4.74-3.44,16.06-7.26,25.9-3.83,9.83-9.8,22.29-12.33,31.83-2.53,9.54-1.44,22.93-8.97,43.7-7.53,20.77-20.72,39.86-22.97,73.43-2.77,41.32,19.35,69.35,21.69,103.26,2.34,33.91,1.17,55.3-4.72,86.11-5.89,30.81-17.75,63.94-28.45,79.42-10.71,15.48-85.42-13.61-89.92-29.93-3.28-11.92-3.2-25.3-3.14-38.08.06-12.78,6.52-32.33,6.52-32.33,0,0-5.26,6.01-9.09,5.89-3.83-.12-6.52-4.37-6.52-4.37,0,0,1.99,22.02,1.61,30.58-.38,8.56-1.93,21.9-4.63,36.27-2.7,14.37-70.35,39.15-86.97,27.56-16.62-11.59-33.04-81.79-29.52-116.66,3.52-34.87,33.5-95.95,39.76-140.25,6.26-44.3-10.63-75.91-13.35-101.34-1.62-15.15.29-27.01.17-36.51-.12-9.5-1.23-20.88-2.12-28.05-.89-7.17-7-22.3-6.11-28.46s30.31-13.31,48.76-16.69c18.44-3.37,45.41-9.45,47.76-11.36,3.53-2.86,4.61-45.13,4.61-45.13"/>
    <polyline class="cls-10" points="135.44 509.37 104.38 1076.41 81.78 1078.06 112.91 509.79"/>
    <path class="cls-10" d="M120.12,21.81s3.22,8.39,36.21,11.11c32.99,2.72,46.73-4.74,46.73-4.74"/>
  </g>
  <g id="Line_2" data-name="Line 2">
    <path class="cls-9" d="M120.69,55.94s13.06,11.67,35.74,12.64c22.68.97,41.82-8.39,41.82-8.39"/>
    <line class="cls-9" x1="147.48" y1="84.52" x2="142" y2="129.41"/>
    <path class="cls-9" d="M40.71,69.2s-.2,21.79-2.09,38.12c-1.89,16.33-10.73,35.57-10.73,35.57"/>
    <path class="cls-9" d="M254.16,109.9s-4.33,11.84-5.23,33.29c-.9,21.45,2.81,36.06,2.81,36.06"/>
    <path class="cls-9" d="M45.66,213.16s6.63,6.79,22.64,9.27c15.48,2.4,32.55-4.2,43.33-3.47"/>
    <path class="cls-9" d="M165.27,219.71s5.07-1.08,17,3.53c11.94,4.61,23.91,4.62,32.47,3.3,8.56-1.33,21.27-8.3,25.16-14.25"/>
    <path class="cls-9" d="M71.6,234.71s-.06,18.62-.12,27.11c-.05,8.49-1.88,21.81-2.92,28.33-1.04,6.52-2.46,19.99-2.46,19.99"/>
    <path class="cls-9" d="M206.48,237.44s-1.38,20.19-2.02,36.87c-.64,16.67-.73,43.36-.73,43.36"/>
  </g>
</svg>