<?xml version="1.0" encoding="UTF-8"?>
<svg id="Layer_2" data-name="Layer 2" xmlns="http://www.w3.org/2000/svg" viewBox="0 0 189.93 128.11">
  <defs>
    <style>
      .cls-1 {
        fill: #b5b5b5;
      }

      .cls-2 {
        stroke: #fff;
        stroke-width: .5px;
      }

      .cls-2, .cls-3 {
        fill: none;
        stroke-miterlimit: 10;
      }

      .cls-3 {
        stroke: #000;
        stroke-width: 2px;
      }

      .cls-4 {
        fill: #686868;
      }
    </style>
  </defs>
  <g id="Color">
    <path class="cls-1" d="M185.62,2.52c-6.59-7.86-34.74,14.21-52.8,34.72-8.14,9.25-49.91,34.89-71.21,49.43C24.15,112.24,2.96,127.1,2.96,127.1c0,0,46.32-23.84,80.17-45.34,30.48-19.36,38.8-24.7,63.05-35.08,29.95-12.82,49.79-31.82,39.44-44.16ZM167.92,25.23c-6.36,4.6-15.84,12.15-18.75,7.77-2.41-3.62,3.57-8.52,10.87-14.29,6.18-4.89,14.05-9.25,16.2-6.97,2.8,2.96-2.16,9.04-8.32,13.49Z"/>
    <path class="cls-4" d="M187.01,5.8c-7.3-5.65-38.29,12.06-46.47,31.62-5.57,13.32-34.9,27.1-58.29,41.64C44.39,102.57,8.78,125.06,8.78,125.06c0,0,45.94-23.92,79.21-45.34,29.96-19.28,40.13-24.66,63.73-36.37,29.15-14.47,43.39-31.29,35.28-37.56ZM170.84,27.16c-7.14,5.66-16.31,14.33-21.81,8.09-4.33-4.92,3.77-11.1,11-16.54,6.12-4.61,15.97-9.67,17.72-8.13,6.47,5.67-1.01,11.9-6.91,16.58Z"/>
    <path class="cls-2" d="M17,117.34s63.75-39.65,76.91-48.13c16.4-10.57,33.04-21.79,39.64-29.09,5.85-6.47,11.67-15.58,24.69-25.22,13.02-9.64,20.47-12.92,23.93-12.65"/>
  </g>
  <g id="Line">
    <path class="cls-3" d="M185.62,2.52c-7.26-7.25-35.09,12.66-52.8,34.72-7.75,9.65-53.92,37.94-88.41,60.62C20.57,113.53,3.84,127.33,2.96,127.1c0,0,24.48-11.24,47.7-24.26,18.87-10.58,36.46-22.92,42.98-26.61,16.43-9.31,39.34-23.26,52.54-29.56,24.84-11.86,52.4-31.22,39.44-44.16Z"/>
    <path class="cls-3" d="M176.24,11.74c2.8,2.96-2.16,9.04-8.32,13.49-6.36,4.6-15.84,12.15-18.75,7.77-2.41-3.62,3.57-8.52,10.87-14.29,6.18-4.89,14.05-9.25,16.2-6.97Z"/>
  </g>
</svg>