<?xml version="1.0" encoding="UTF-8"?>
<svg id="Layer_2" data-name="Layer 2" xmlns="http://www.w3.org/2000/svg" viewBox="0 0 191.49 197.78">
  <defs>
    <style>
      .cls-1 {
        fill: #bf8c4f;
      }

      .cls-2 {
        fill: #b28952;
      }

      .cls-3 {
        stroke: #fff;
      }

      .cls-3, .cls-4, .cls-5 {
        fill: none;
        stroke-miterlimit: 10;
      }

      .cls-6 {
        fill: #d3ab66;
      }

      .cls-7 {
        fill: #b28b52;
      }

      .cls-8 {
        fill: #e0aa69;
      }

      .cls-9 {
        fill: #fff;
      }

      .cls-10 {
        fill: #ffce88;
      }

      .cls-4, .cls-5 {
        stroke: #000;
      }

      .cls-5 {
        stroke-width: 2px;
      }

      .cls-11 {
        fill: #e57ab5;
      }

      .cls-12 {
        fill: #ffefdc;
      }

      .cls-13 {
        fill: #ffeed7;
      }

      .cls-14 {
        fill: #e2a460;
      }
    </style>
  </defs>
  <g id="Color">
    <path class="cls-11" d="M43.04,111.24s16.8,22.71,21.79,28.75,10.4,17.21,24.88,17.47c14.47.26,36.55-11.29,45.33-18.8,10.47-8.95,24.75-23.89,19.07-41.03-5.67-17.13-32.04-45.56-32.04-45.56,0,0-12.76,18.19-34.29,35.57-21.52,17.38-44.73,23.58-44.73,23.58Z"/>
    <path class="cls-6" d="M4.31,89.74s9.15,12.81,14.84,16.52c5.68,3.71,13.94,7.62,30.56,2.82,16.62-4.8,40.38-22.72,44.76-26.91,4.38-4.19,34.37-31.99,33.52-45.16-.85-13.17-8.8-22.8-8.8-22.8,0,0,3.89,13.77-16.13,36.34-20.02,22.58-49.1,43.1-74.05,45.7-13.25,1.38-24.68-6.52-24.68-6.52Z"/>
    <path class="cls-10" d="M33.77,29.99C14.37,45.79-10.33,68.02,6.81,90.13c4.79,6.18,19.8,7.67,33.38,3.88,18.59-5.19,37.65-19.06,52.9-33.12,16.61-15.31,35.36-41.27,20.22-54.33-15.15-13.06-47.44-2.71-79.53,23.43Z"/>
    <path class="cls-10" d="M64.83,139.99s-13.16,25,9.1,41.46c22.27,16.46,66.74-13.07,85.71-31.36,19.05-18.37,33.72-45.32,14.06-64.06-13.72-13.08-29.82-7.31-29.82-7.31,0,0,13.1,14.26,11.91,26.05-1.19,11.78-7.53,26.11-31.72,42.01-24.18,15.9-40.96,10.26-47.74,6.19-6.77-4.06-11.5-12.99-11.5-12.99Z"/>
    <path class="cls-6" d="M67.82,178.11s8.01,13.37,25.91,18.08c17.9,4.72,49.37-9.23,71.68-31.55,22.31-22.32,28.96-37.74,23.32-53.34-5.64-15.6-7.83-15.05-7.83-15.05,0,0,9.6,18.18-8.69,39.32-21.74,25.12-49.15,48.18-78.48,50.69-12.12,1.04-25.91-8.15-25.91-8.15Z"/>
    <path class="cls-1" d="M81.65,156.2v28.01s4.56,2.78,21.05.26c16.49-2.53,28.83-12.97,28.83-12.97l-13.7-20.41s-10.25,6.26-18.61,6.36c-8.36.11-17.57-1.25-17.57-1.25Z"/>
    <path class="cls-14" d="M135.03,138.66l19.07,17.54s-9.99,6.4-14.03,9.73c-4.03,3.33-8.55,5.57-8.55,5.57l-13.7-20.41s4.24-2.03,9.7-5.88c2.02-1.42,7.51-6.56,7.51-6.56Z"/>
    <path class="cls-12" d="M149.56,123.63l22.65,11.95s7.68-11.2,9.23-16.45,1.59-17.51,1.59-17.51l-27.24,3.15s-.11,7.87-1.43,10.17c-2,3.49-4.8,8.69-4.8,8.69Z"/>
    <path class="cls-2" d="M154.1,156.2l7.82,10.62s-7.51,7.72-12.36,10.49-10.5,7.12-10.5,7.12l-7.53-11.99,12.29-7.92c2.22-1.43,10.28-8.32,10.28-8.32Z"/>
    <path class="cls-13" d="M172.2,135.58l10.15,10.31s8.15-11.86,8.14-19.37-3.47-19.69-3.47-19.69l-4.03-3.51s.73,9.83-1.65,17-9.15,15.26-9.15,15.26Z"/>
    <path class="cls-8" d="M31.55,32.87s-10.29,15.76-.53,33.56c10.36,18.9,37.42,14.09,37.42,14.09,0,0-44.46,34.04-64.96,4.33-15.05-21.82,28.07-51.98,28.07-51.98Z"/>
    <path class="cls-13" d="M90.33,62.76s11.64-18.47,1.88-35.61c-10.36-18.19-28.51-16.26-28.51-16.26,0,0,38.72-22.04,52.76-.89,12.38,18.65-26.13,52.76-26.13,52.76Z"/>
    <path class="cls-7" d="M68.45,80.52s1.26,4.27,3.97,7.58c2.71,3.31,6.66,4.87,6.66,4.87,0,0-18.85,12.18-31.19,16.11-12.34,3.93-22.49,2.98-28.74-2.82-6.25-5.8-14.84-16.52-14.84-16.52,0,0,9.41,5.82,19.04,6.8,9.63.98,23.84-4.65,30.44-7.77,6.66-3.13,15.5-6.95,14.65-8.24Z"/>
    <path class="cls-9" d="M107.59,6.01c8.27,5.61,9.36,17.7,5.36,26.14-2.02,4.21-4.99,7.7-7.74,11.4-2.81,3.6-5.74,7.1-8.82,10.45,2.9-3.51,5.64-7.15,8.25-10.88,2.48-3.72,5.29-7.44,7.02-11.54,3.2-7.67,1.95-18.51-5.43-23.18,0,0,1.36-2.39,1.36-2.39h0Z"/>
    <path class="cls-9" d="M5.51,78.72c2.76,8.08,11.92,11.5,19.77,12.2,8.23.93,16.27-1.63,23.67-5.03,4.98-2.24,9.83-4.79,14.49-7.6l.52.85c-4.76,2.77-9.66,5.25-14.71,7.43-7.52,3.32-15.71,5.78-24.01,4.71-7.89-.82-17.08-4.41-19.73-12.57h0Z"/>
    <path class="cls-3" d="M173.26,89.74s11.97,14.23,3.69,32.22c-8.28,18-23.83,31.92-40.34,42.76"/>
    <path class="cls-9" d="M67.36,162.21c5.25,11.92,17.34,18.57,30.17,16.86,12.73-1.25,24.52-7.16,35.78-13-7.68,5.99-16.71,10.12-25.9,13.24-9.44,2.95-20.22,3.83-29.05-1.4-4.38-2.51-7.98-6.25-10.47-10.6-.83-1.45-1.55-2.92-2.08-4.57l1.55-.53h0Z"/>
  </g>
  <g id="Line">
    <path class="cls-5" d="M111.15,4.99c18.38,11.65,4.42,40.14-33.88,69.23-38.3,29.09-62.72,23.81-70.94,15.47-8.22-8.35-12.35-28.76,29.62-61.41C73.66-1.06,98.75-2.87,111.15,4.99Z"/>
    <path class="cls-5" d="M142.9,78.03c13.31-2.69,22.87.55,28.88,6.13,20.37,18.9,15.74,46.85-29.21,80.64-42.21,31.73-65.46,21.59-74.26,12.03-5.66-6.16-11.81-18.7-3.49-36.84"/>
    <path class="cls-5" d="M1.66,81.42c3.44,10.71,9.72,17.23,14.75,22.26,5.03,5.03,10.29,9.44,23.18,7.72,12.89-1.72,35.96-13.99,51.06-26.02,15.1-12.03,32.28-32.4,35.35-40.01,3.07-7.61,2.21-12.03,0-17.92-2.21-5.89-6.56-13.06-9.54-17.45"/>
    <path class="cls-5" d="M63.7,170.02c5.57,13.19,15.61,26.21,36.04,26.74,17.02.44,35.12-7.19,58.91-26.44,21.11-17.08,29-28.54,31.41-42.5,2.22-12.84-4.62-26.82-10.05-33.09"/>
    <path class="cls-5" d="M43.04,110.75s25.58,35.73,33.22,42.26c7.64,6.54,31.11,8.65,57.9-13.62,26.79-22.28,23.3-37.41,17.68-48.18-5.62-10.77-29.79-39.13-29.79-39.13"/>
  </g>
  <g id="Line_2" data-name="Line 2">
    <path class="cls-4" d="M117,58.76s-9.99,22.38-29.14,40.68c-19.15,18.3-32.76,27.75-32.76,27.75"/>
    <path class="cls-4" d="M49.7,119.91s3.48.85,7.32.38c4.66-.57,9.5-1.91,9.5-1.91"/>
    <path class="cls-4" d="M45.19,113.72c2.17.76,7.28,1.13,15.58-.02,8.6-1.19,14.2-2.47,14.2-2.47"/>
    <path class="cls-4" d="M51.04,108.83c6.4.92,14.19-.89,18.32-1.8,4.23-.92,10.07-1.47,15.24-4.51"/>
    <path class="cls-4" d="M68.45,100.04c.34.34,7.17,0,10.67-.28,5.11-.41,10.59-2.12,10.59-2.12"/>
    <path class="cls-4" d="M81.65,91.96s3.45-.17,7.69-.86c4.23-.69,8.42-2.34,8.42-2.34"/>
    <path class="cls-4" d="M91.32,84.85c.14-.11,2.9-.14,5.43-.46s5.29-1.05,5.29-1.05"/>
    <path class="cls-4" d="M125.12,55.72s-9.18,23.47-32.75,46.8c-20.07,19.87-34.59,28.23-34.59,28.23"/>
    <path class="cls-4" d="M128.84,60.21s-2.96,11.97-21.74,34.53c-18.78,22.56-37.56,34.84-47.01,39.04"/>
    <path class="cls-4" d="M132.3,64.44s-1.86,13.11-25.88,38.08c-20.6,21.42-35.53,30.92-43.56,34.85"/>
    <path class="cls-4" d="M135.1,67.92s-.44,8.77-11.43,22.45c-10.99,13.67-27.8,29.02-39.03,39.02-11.23,10-20.41,11.54-19.81,11.48"/>
    <path class="cls-4" d="M90.78,129.94s4.19-6.61,5.9-11.56"/>
    <path class="cls-4" d="M99.41,128.19s5.82-12.52,6.57-18.64"/>
    <path class="cls-4" d="M113.77,101.62s-1.76,10.47-2.86,14.33c-1.29,4.48-4,9.33-4,9.33"/>
    <path class="cls-4" d="M121.3,93.23s.16,8.38-2.12,14.86c-2.11,5.98-4.84,13.26-4.84,13.26"/>
    <path class="cls-4" d="M129.45,82.17s-.38,11.76-1.46,18.01c-1.07,6.25-4.94,16.5-4.94,16.5"/>
    <path class="cls-4" d="M138.01,71.6c1,.28.45,10.1-.72,16.12s-3.74,17.25-5.77,22.95"/>
    <path class="cls-4" d="M143.48,78.72c1.06,5.13-.17,11.8-1.64,16.01-1.47,4.21-3.3,11.06-3.3,11.06"/>
    <path class="cls-4" d="M151.03,89.74c-.66,4.73-4.75,14.98-41.21,34.11-13.94,7.32-28.18,7.84-28.18,7.84"/>
    <path class="cls-4" d="M154.1,96.26c.07,4.9-2.75,9.93-19.07,20.43-16.32,10.49-41.06,20.07-51.86,22.71-10.8,2.64-16.65,2.62-16.65,2.62"/>
    <path class="cls-4" d="M69.81,146.04c7.4,2.56,23.11-1.98,32.22-5.66,9.12-3.68,35.93-16.75,44.47-23.69,8.53-6.93,9.27-10.42,9.27-10.42"/>
    <path class="cls-4" d="M73.93,150.73c3.59.93,14.91.13,25.48-3.12,10.57-3.25,21.99-7.12,30.88-11.66,8.9-4.54,17.71-9.78,20.08-13.99"/>
    <path class="cls-4" d="M84.59,156.2c7.78-.06,15.76-1.87,24.59-5.11s29.35-15.52,29.35-15.52"/>
  </g>
</svg>